<?xml version="1.0" encoding="utf-8" standalone="no"?>
<!DOCTYPE svg PUBLIC "-//W3C//DTD SVG 1.1//EN"
  "http://www.w3.org/Graphics/SVG/1.1/DTD/svg11.dtd">
<svg xmlns:xlink="http://www.w3.org/1999/xlink" width="1144.8pt" height="640.600625pt" viewBox="0 0 1144.8 640.600625" xmlns="http://www.w3.org/2000/svg" version="1.1">
 <metadata>
  <rdf:RDF xmlns:dc="http://purl.org/dc/elements/1.1/" xmlns:cc="http://creativecommons.org/ns#" xmlns:rdf="http://www.w3.org/1999/02/22-rdf-syntax-ns#">
   <cc:Work>
    <dc:type rdf:resource="http://purl.org/dc/dcmitype/StillImage"/>
    <dc:date>2026-02-05T18:35:22.957574</dc:date>
    <dc:format>image/svg+xml</dc:format>
    <dc:creator>
     <cc:Agent>
      <dc:title>Matplotlib v3.10.8, https://matplotlib.org/</dc:title>
     </cc:Agent>
    </dc:creator>
   </cc:Work>
  </rdf:RDF>
 </metadata>
 <defs>
  <style type="text/css">*{stroke-linejoin: round; stroke-linecap: butt}</style>
 </defs>
 <g id="figure_1">
  <g id="patch_1">
   <path d="M 0 640.600625 
L 1144.8 640.600625 
L 1144.8 0 
L 0 0 
z
" style="fill: #ffffff"/>
  </g>
  <g id="axes_1">
   <g id="LineCollection_1">
    <path d="M 612.25484 232.60775 
L 531.122596 255.562847 
" clip-path="url(#p8dd5b5c33e)" style="fill: none; stroke: #808080; stroke-opacity: 0.18; stroke-width: 3.488653"/>
    <path d="M 612.25484 232.60775 
L 647.445228 306.600051 
" clip-path="url(#p8dd5b5c33e)" style="fill: none; stroke: #808080; stroke-opacity: 0.18; stroke-width: 1.81082"/>
    <path d="M 612.25484 232.60775 
L 596.091171 282.369545 
" clip-path="url(#p8dd5b5c33e)" style="fill: none; stroke: #808080; stroke-opacity: 0.18; stroke-width: 2.113171"/>
    <path d="M 612.25484 232.60775 
L 689.421392 188.83313 
" clip-path="url(#p8dd5b5c33e)" style="fill: none; stroke: #808080; stroke-opacity: 0.18; stroke-width: 1.34129"/>
    <path d="M 612.25484 232.60775 
L 632.68212 150.979293 
" clip-path="url(#p8dd5b5c33e)" style="fill: none; stroke: #808080; stroke-opacity: 0.18; stroke-width: 1.509771"/>
    <path d="M 85.158621 150.331444 
L 180.59554 144.160384 
" clip-path="url(#p8dd5b5c33e)" style="fill: none; stroke: #808080; stroke-opacity: 0.18; stroke-width: 1.179784"/>
    <path d="M 93.828957 81.429929 
L 180.59554 144.160384 
" clip-path="url(#p8dd5b5c33e)" style="fill: none; stroke: #808080; stroke-opacity: 0.18; stroke-width: 0.96"/>
    <path d="M 426.460257 268.962457 
L 531.122596 255.562847 
" clip-path="url(#p8dd5b5c33e)" style="fill: none; stroke: #808080; stroke-opacity: 0.18; stroke-width: 2.458912"/>
    <path d="M 426.460257 268.962457 
L 309.23471 261.450904 
" clip-path="url(#p8dd5b5c33e)" style="fill: none; stroke: #808080; stroke-opacity: 0.18; stroke-width: 1.592363"/>
    <path d="M 647.445228 306.600051 
L 531.122596 255.562847 
" clip-path="url(#p8dd5b5c33e)" style="fill: none; stroke: #808080; stroke-opacity: 0.18; stroke-width: 2.038681"/>
    <path d="M 647.445228 306.600051 
L 789.754122 392.578739 
" clip-path="url(#p8dd5b5c33e)" style="fill: none; stroke: #808080; stroke-opacity: 0.18; stroke-width: 1.141669"/>
    <path d="M 647.445228 306.600051 
L 596.091171 282.369545 
" clip-path="url(#p8dd5b5c33e)" style="fill: none; stroke: #808080; stroke-opacity: 0.18; stroke-width: 1.712816"/>
    <path d="M 206.255098 227.817479 
L 309.23471 261.450904 
" clip-path="url(#p8dd5b5c33e)" style="fill: none; stroke: #808080; stroke-opacity: 0.18; stroke-width: 1.796898"/>
    <path d="M 206.255098 227.817479 
L 180.59554 144.160384 
" clip-path="url(#p8dd5b5c33e)" style="fill: none; stroke: #808080; stroke-opacity: 0.18; stroke-width: 2.782559"/>
    <path d="M 206.255098 227.817479 
L 136.381257 282.528466 
" clip-path="url(#p8dd5b5c33e)" style="fill: none; stroke: #808080; stroke-opacity: 0.18; stroke-width: 1.354849"/>
    <path d="M 976.102959 495.66388 
L 989.08728 537.056867 
" clip-path="url(#p8dd5b5c33e)" style="fill: none; stroke: #808080; stroke-opacity: 0.18; stroke-width: 1.95936"/>
    <path d="M 976.102959 495.66388 
L 913.606159 476.226161 
" clip-path="url(#p8dd5b5c33e)" style="fill: none; stroke: #808080; stroke-opacity: 0.18; stroke-width: 2.167918"/>
    <path d="M 789.754122 392.578739 
L 843.484335 395.354564 
" clip-path="url(#p8dd5b5c33e)" style="fill: none; stroke: #808080; stroke-opacity: 0.18; stroke-width: 2.924856"/>
    <path d="M 789.754122 392.578739 
L 913.606159 476.226161 
" clip-path="url(#p8dd5b5c33e)" style="fill: none; stroke: #808080; stroke-opacity: 0.18; stroke-width: 1.099107"/>
    <path d="M 989.08728 537.056867 
L 1059.641379 592.120625 
" clip-path="url(#p8dd5b5c33e)" style="fill: none; stroke: #808080; stroke-opacity: 0.18; stroke-width: 1.130853"/>
    <path d="M 989.08728 537.056867 
L 913.606159 476.226161 
" clip-path="url(#p8dd5b5c33e)" style="fill: none; stroke: #808080; stroke-opacity: 0.18; stroke-width: 2.079409"/>
    <path d="M 531.122596 255.562847 
L 596.091171 282.369545 
" clip-path="url(#p8dd5b5c33e)" style="fill: none; stroke: #808080; stroke-opacity: 0.18; stroke-width: 1.202141"/>
    <path d="M 531.122596 255.562847 
L 403.536964 194.216564 
" clip-path="url(#p8dd5b5c33e)" style="fill: none; stroke: #808080; stroke-opacity: 0.18; stroke-width: 1.36209"/>
    <path d="M 403.536964 194.216564 
L 264.930887 152.766284 
" clip-path="url(#p8dd5b5c33e)" style="fill: none; stroke: #808080; stroke-opacity: 0.18; stroke-width: 1.076565"/>
    <path d="M 159.253105 76.120625 
L 180.59554 144.160384 
" clip-path="url(#p8dd5b5c33e)" style="fill: none; stroke: #808080; stroke-opacity: 0.18; stroke-width: 2.342497"/>
    <path d="M 180.59554 144.160384 
L 264.930887 152.766284 
" clip-path="url(#p8dd5b5c33e)" style="fill: none; stroke: #808080; stroke-opacity: 0.18; stroke-width: 3.6"/>
   </g>
   <g id="PathCollection_1">
    <path d="M 612.25484 257.36979 
C 618.821809 257.36979 625.120697 254.760705 629.764246 250.117156 
C 634.407795 245.473608 637.01688 239.17472 637.01688 232.60775 
C 637.01688 226.04078 634.407795 219.741892 629.764246 215.098343 
C 625.120697 210.454794 618.821809 207.84571 612.25484 207.84571 
C 605.68787 207.84571 599.388982 210.454794 594.745433 215.098343 
C 590.101884 219.741892 587.492799 226.04078 587.492799 232.60775 
C 587.492799 239.17472 590.101884 245.473608 594.745433 250.117156 
C 599.388982 254.760705 605.68787 257.36979 612.25484 257.36979 
z
" clip-path="url(#p8dd5b5c33e)" style="fill: #1f77b4; stroke: #ffffff; stroke-width: 1.4"/>
    <path d="M 632.68212 162.648752 
C 635.776897 162.648752 638.745336 161.419184 640.933674 159.230846 
C 643.122011 157.042509 644.351579 154.074069 644.351579 150.979293 
C 644.351579 147.884516 643.122011 144.916077 640.933674 142.727739 
C 638.745336 140.539402 635.776897 139.309834 632.68212 139.309834 
C 629.587344 139.309834 626.618904 140.539402 624.430567 142.727739 
C 622.242229 144.916077 621.012662 147.884516 621.012662 150.979293 
C 621.012662 154.074069 622.242229 157.042509 624.430567 159.230846 
C 626.618904 161.419184 629.587344 162.648752 632.68212 162.648752 
z
" clip-path="url(#p8dd5b5c33e)" style="fill: #1f77b4; stroke: #ffffff; stroke-width: 1.4"/>
    <path d="M 85.158621 160.987782 
C 87.984715 160.987782 90.69544 159.864963 92.69379 157.866613 
C 94.69214 155.868263 95.814959 153.157538 95.814959 150.331444 
C 95.814959 147.505351 94.69214 144.794626 92.69379 142.796276 
C 90.69544 140.797926 87.984715 139.675107 85.158621 139.675107 
C 82.332527 139.675107 79.621802 140.797926 77.623452 142.796276 
C 75.625102 144.794626 74.502283 147.505351 74.502283 150.331444 
C 74.502283 153.157538 75.625102 155.868263 77.623452 157.866613 
C 79.621802 159.864963 82.332527 160.987782 85.158621 160.987782 
z
" clip-path="url(#p8dd5b5c33e)" style="fill: #d62728; stroke: #ffffff; stroke-width: 1.4"/>
    <path d="M 93.828957 91.304138 
C 96.447628 91.304138 98.959397 90.263729 100.811077 88.412049 
C 102.662757 86.560369 103.703166 84.0486 103.703166 81.429929 
C 103.703166 78.811258 102.662757 76.299489 100.811077 74.447809 
C 98.959397 72.596129 96.447628 71.55572 93.828957 71.55572 
C 91.210286 71.55572 88.698517 72.596129 86.846837 74.447809 
C 84.995157 76.299489 83.954748 78.811258 83.954748 81.429929 
C 83.954748 84.0486 84.995157 86.560369 86.846837 88.412049 
C 88.698517 90.263729 91.210286 91.304138 93.828957 91.304138 
z
" clip-path="url(#p8dd5b5c33e)" style="fill: #d62728; stroke: #ffffff; stroke-width: 1.4"/>
    <path d="M 426.460257 286.750225 
C 431.177628 286.750225 435.702423 284.875993 439.038108 281.540308 
C 442.373793 278.204623 444.248025 273.679828 444.248025 268.962457 
C 444.248025 264.245085 442.373793 259.72029 439.038108 256.384605 
C 435.702423 253.04892 431.177628 251.174689 426.460257 251.174689 
C 421.742886 251.174689 417.218091 253.04892 413.882406 256.384605 
C 410.54672 259.72029 408.672489 264.245085 408.672489 268.962457 
C 408.672489 273.679828 410.54672 278.204623 413.882406 281.540308 
C 417.218091 284.875993 421.742886 286.750225 426.460257 286.750225 
z
" clip-path="url(#p8dd5b5c33e)" style="fill: #f7b6d2; stroke: #ffffff; stroke-width: 1.4"/>
    <path d="M 647.445228 328.553768 
C 653.267422 328.553768 658.851937 326.240586 662.96885 322.123673 
C 667.085763 318.006761 669.398945 312.422245 669.398945 306.600051 
C 669.398945 300.777857 667.085763 295.193342 662.96885 291.076429 
C 658.851937 286.959516 653.267422 284.646334 647.445228 284.646334 
C 641.623034 284.646334 636.038519 286.959516 631.921606 291.076429 
C 627.804693 295.193342 625.491511 300.777857 625.491511 306.600051 
C 625.491511 312.422245 627.804693 318.006761 631.921606 322.123673 
C 636.038519 326.240586 641.623034 328.553768 647.445228 328.553768 
z
" clip-path="url(#p8dd5b5c33e)" style="fill: #1f77b4; stroke: #ffffff; stroke-width: 1.4"/>
    <path d="M 206.255098 248.427975 
C 211.721065 248.427975 216.963896 246.256323 220.828919 242.391301 
C 224.693942 238.526278 226.865593 233.283447 226.865593 227.817479 
C 226.865593 222.351512 224.693942 217.108681 220.828919 213.243658 
C 216.963896 209.378635 211.721065 207.206984 206.255098 207.206984 
C 200.78913 207.206984 195.546299 209.378635 191.681277 213.243658 
C 187.816254 217.108681 185.644602 222.351512 185.644602 227.817479 
C 185.644602 233.283447 187.816254 238.526278 191.681277 242.391301 
C 195.546299 246.256323 200.78913 248.427975 206.255098 248.427975 
z
" clip-path="url(#p8dd5b5c33e)" style="fill: #d62728; stroke: #ffffff; stroke-width: 1.4"/>
    <path d="M 689.421392 200.005966 
C 692.384463 200.005966 695.226573 198.828726 697.32178 196.733518 
C 699.416988 194.638311 700.594228 191.796201 700.594228 188.83313 
C 700.594228 185.870059 699.416988 183.027949 697.32178 180.932742 
C 695.226573 178.837534 692.384463 177.660294 689.421392 177.660294 
C 686.458321 177.660294 683.616211 178.837534 681.521004 180.932742 
C 679.425796 183.027949 678.248556 185.870059 678.248556 188.83313 
C 678.248556 191.796201 679.425796 194.638311 681.521004 196.733518 
C 683.616211 198.828726 686.458321 200.005966 689.421392 200.005966 
z
" clip-path="url(#p8dd5b5c33e)" style="fill: #1f77b4; stroke: #ffffff; stroke-width: 1.4"/>
    <path d="M 976.102959 513.541958 
C 980.844281 513.541958 985.392048 511.658211 988.744669 508.30559 
C 992.09729 504.952969 993.981037 500.405201 993.981037 495.66388 
C 993.981037 490.922558 992.09729 486.37479 988.744669 483.022169 
C 985.392048 479.669549 980.844281 477.785801 976.102959 477.785801 
C 971.361637 477.785801 966.813869 479.669549 963.461248 483.022169 
C 960.108628 486.37479 958.224881 490.922558 958.224881 495.66388 
C 958.224881 500.405201 960.108628 504.952969 963.461248 508.30559 
C 966.813869 511.658211 971.361637 513.541958 976.102959 513.541958 
z
" clip-path="url(#p8dd5b5c33e)" style="fill: #9edae5; stroke: #ffffff; stroke-width: 1.4"/>
    <path d="M 789.754122 412.510497 
C 795.040086 412.510497 800.110262 410.410361 803.848003 406.67262 
C 807.585744 402.934879 809.68588 397.864703 809.68588 392.578739 
C 809.68588 387.292774 807.585744 382.222598 803.848003 378.484857 
C 800.110262 374.747116 795.040086 372.64698 789.754122 372.64698 
C 784.468158 372.64698 779.397981 374.747116 775.66024 378.484857 
C 771.922499 382.222598 769.822363 387.292774 769.822363 392.578739 
C 769.822363 397.864703 771.922499 402.934879 775.66024 406.67262 
C 779.397981 410.410361 784.468158 412.510497 789.754122 412.510497 
z
" clip-path="url(#p8dd5b5c33e)" style="fill: #9edae5; stroke: #ffffff; stroke-width: 1.4"/>
    <path d="M 989.08728 556.992292 
C 994.374216 556.992292 999.445325 554.89177 1003.183754 551.153341 
C 1006.922182 547.414913 1009.022705 542.343804 1009.022705 537.056867 
C 1009.022705 531.769931 1006.922182 526.698822 1003.183754 522.960393 
C 999.445325 519.221964 994.374216 517.121442 989.08728 517.121442 
C 983.800343 517.121442 978.729234 519.221964 974.990806 522.960393 
C 971.252377 526.698822 969.151855 531.769931 969.151855 537.056867 
C 969.151855 542.343804 971.252377 547.414913 974.990806 551.153341 
C 978.729234 554.89177 983.800343 556.992292 989.08728 556.992292 
z
" clip-path="url(#p8dd5b5c33e)" style="fill: #9edae5; stroke: #ffffff; stroke-width: 1.4"/>
    <path d="M 136.381257 293.74276 
C 139.355322 293.74276 142.207978 292.561152 144.31096 290.45817 
C 146.413942 288.355187 147.595551 285.502531 147.595551 282.528466 
C 147.595551 279.5544 146.413942 276.701744 144.31096 274.598762 
C 142.207978 272.49578 139.355322 271.314171 136.381257 271.314171 
C 133.407191 271.314171 130.554535 272.49578 128.451553 274.598762 
C 126.348571 276.701744 125.166962 279.5544 125.166962 282.528466 
C 125.166962 285.502531 126.348571 288.355187 128.451553 290.45817 
C 130.554535 292.561152 133.407191 293.74276 136.381257 293.74276 
z
" clip-path="url(#p8dd5b5c33e)" style="fill: #d62728; stroke: #ffffff; stroke-width: 1.4"/>
    <path d="M 309.23471 278.404567 
C 313.730874 278.404567 318.043493 276.618222 321.222761 273.438954 
C 324.402029 270.259686 326.188374 265.947068 326.188374 261.450904 
C 326.188374 256.95474 324.402029 252.642121 321.222761 249.462853 
C 318.043493 246.283585 313.730874 244.49724 309.23471 244.49724 
C 304.738546 244.49724 300.425928 246.283585 297.24666 249.462853 
C 294.067391 252.642121 292.281046 256.95474 292.281046 261.450904 
C 292.281046 265.947068 294.067391 270.259686 297.24666 273.438954 
C 300.425928 276.618222 304.738546 278.404567 309.23471 278.404567 
z
" clip-path="url(#p8dd5b5c33e)" style="fill: #f7b6d2; stroke: #ffffff; stroke-width: 1.4"/>
    <path d="M 843.484335 410.158794 
C 847.410463 410.158794 851.176315 408.598927 853.952507 405.822735 
C 856.728698 403.046544 858.288565 399.280691 858.288565 395.354564 
C 858.288565 391.428436 856.728698 387.662584 853.952507 384.886392 
C 851.176315 382.110201 847.410463 380.550334 843.484335 380.550334 
C 839.558208 380.550334 835.792355 382.110201 833.016164 384.886392 
C 830.239972 387.662584 828.680105 391.428436 828.680105 395.354564 
C 828.680105 399.280691 830.239972 403.046544 833.016164 405.822735 
C 835.792355 408.598927 839.558208 410.158794 843.484335 410.158794 
z
" clip-path="url(#p8dd5b5c33e)" style="fill: #9edae5; stroke: #ffffff; stroke-width: 1.4"/>
    <path d="M 531.122596 280.478669 
C 537.730349 280.478669 544.068356 277.853381 548.740743 273.180993 
C 553.41313 268.508606 556.038418 262.1706 556.038418 255.562847 
C 556.038418 248.955093 553.41313 242.617087 548.740743 237.9447 
C 544.068356 233.272313 537.730349 230.647024 531.122596 230.647024 
C 524.514843 230.647024 518.176836 233.272313 513.504449 237.9447 
C 508.832062 242.617087 506.206774 248.955093 506.206774 255.562847 
C 506.206774 262.1706 508.832062 268.508606 513.504449 273.180993 
C 518.176836 277.853381 524.514843 280.478669 531.122596 280.478669 
z
" clip-path="url(#p8dd5b5c33e)" style="fill: #1f77b4; stroke: #ffffff; stroke-width: 1.4"/>
    <path d="M 403.536964 209.786331 
C 407.666114 209.786331 411.626701 208.145802 414.546451 205.226052 
C 417.466201 202.306302 419.10673 198.345715 419.10673 194.216564 
C 419.10673 190.087414 417.466201 186.126827 414.546451 183.207077 
C 411.626701 180.287327 407.666114 178.646798 403.536964 178.646798 
C 399.407813 178.646798 395.447226 180.287327 392.527476 183.207077 
C 389.607726 186.126827 387.967197 190.087414 387.967197 194.216564 
C 387.967197 198.345715 389.607726 202.306302 392.527476 205.226052 
C 395.447226 208.145802 399.407813 209.786331 403.536964 209.786331 
z
" clip-path="url(#p8dd5b5c33e)" style="fill: #d62728; stroke: #ffffff; stroke-width: 1.4"/>
    <path d="M 159.253105 89.804243 
C 162.882043 89.804243 166.362837 88.362451 168.928884 85.796404 
C 171.49493 83.230358 172.936723 79.749563 172.936723 76.120625 
C 172.936723 72.491688 171.49493 69.010893 168.928884 66.444847 
C 166.362837 63.8788 162.882043 62.437008 159.253105 62.437008 
C 155.624167 62.437008 152.143373 63.8788 149.577326 66.444847 
C 147.01128 69.010893 145.569488 72.491688 145.569488 76.120625 
C 145.569488 79.749563 147.01128 83.230358 149.577326 85.796404 
C 152.143373 88.362451 155.624167 89.804243 159.253105 89.804243 
z
" clip-path="url(#p8dd5b5c33e)" style="fill: #d62728; stroke: #ffffff; stroke-width: 1.4"/>
    <path d="M 596.091171 302.173962 
C 601.343364 302.173962 606.381147 300.087244 610.095009 296.373382 
C 613.80887 292.659521 615.895588 287.621738 615.895588 282.369545 
C 615.895588 277.117352 613.80887 272.079569 610.095009 268.365708 
C 606.381147 264.651847 601.343364 262.565128 596.091171 262.565128 
C 590.838978 262.565128 585.801195 264.651847 582.087334 268.365708 
C 578.373473 272.079569 576.286754 277.117352 576.286754 282.369545 
C 576.286754 287.621738 578.373473 292.659521 582.087334 296.373382 
C 585.801195 300.087244 590.838978 302.173962 596.091171 302.173962 
z
" clip-path="url(#p8dd5b5c33e)" style="fill: #1f77b4; stroke: #ffffff; stroke-width: 1.4"/>
    <path d="M 180.59554 169.85085 
C 187.408731 169.85085 193.943789 167.14394 198.761442 162.326287 
C 203.579096 157.508633 206.286005 150.973575 206.286005 144.160384 
C 206.286005 137.347193 203.579096 130.812136 198.761442 125.994482 
C 193.943789 121.176829 187.408731 118.469919 180.59554 118.469919 
C 173.782349 118.469919 167.247292 121.176829 162.429638 125.994482 
C 157.611985 130.812136 154.905075 137.347193 154.905075 144.160384 
C 154.905075 150.973575 157.611985 157.508633 162.429638 162.326287 
C 167.247292 167.14394 173.782349 169.85085 180.59554 169.85085 
z
" clip-path="url(#p8dd5b5c33e)" style="fill: #d62728; stroke: #ffffff; stroke-width: 1.4"/>
    <path d="M 913.606159 496.322493 
C 918.935769 496.322493 924.047809 494.205017 927.816412 490.436414 
C 931.585015 486.667811 933.702491 481.555771 933.702491 476.226161 
C 933.702491 470.896552 931.585015 465.784512 927.816412 462.015909 
C 924.047809 458.247306 918.935769 456.129829 913.606159 456.129829 
C 908.27655 456.129829 903.16451 458.247306 899.395907 462.015909 
C 895.627304 465.784512 893.509827 470.896552 893.509827 476.226161 
C 893.509827 481.555771 895.627304 486.667811 899.395907 490.436414 
C 903.16451 494.205017 908.27655 496.322493 913.606159 496.322493 
z
" clip-path="url(#p8dd5b5c33e)" style="fill: #9edae5; stroke: #ffffff; stroke-width: 1.4"/>
    <path d="M 1059.641379 602.611454 
C 1062.423579 602.611454 1065.092203 601.506074 1067.059516 599.538761 
C 1069.026828 597.571448 1070.132208 594.902825 1070.132208 592.120625 
C 1070.132208 589.338424 1069.026828 586.669801 1067.059516 584.702488 
C 1065.092203 582.735175 1062.423579 581.629795 1059.641379 581.629795 
C 1056.859178 581.629795 1054.190555 582.735175 1052.223242 584.702488 
C 1050.255929 586.669801 1049.150549 589.338424 1049.150549 592.120625 
C 1049.150549 594.902825 1050.255929 597.571448 1052.223242 599.538761 
C 1054.190555 601.506074 1056.859178 602.611454 1059.641379 602.611454 
z
" clip-path="url(#p8dd5b5c33e)" style="fill: #9edae5; stroke: #ffffff; stroke-width: 1.4"/>
    <path d="M 264.930887 172.484551 
C 270.160233 172.484551 275.176102 170.40691 278.873808 166.709204 
C 282.571513 163.011499 284.649154 157.99563 284.649154 152.766284 
C 284.649154 147.536938 282.571513 142.521069 278.873808 138.823364 
C 275.176102 135.125658 270.160233 133.048017 264.930887 133.048017 
C 259.701542 133.048017 254.685673 135.125658 250.987967 138.823364 
C 247.290261 142.521069 245.21262 147.536938 245.21262 152.766284 
C 245.21262 157.99563 247.290261 163.011499 250.987967 166.709204 
C 254.685673 170.40691 259.701542 172.484551 264.930887 172.484551 
z
" clip-path="url(#p8dd5b5c33e)" style="fill: #d62728; stroke: #ffffff; stroke-width: 1.4"/>
   </g>
   <g id="text_1">
    <g id="patch_2">
     <path d="M 167.59554 153.231947 
L 193.59554 153.231947 
Q 196.19554 153.231947 196.19554 150.631947 
L 196.19554 137.688822 
Q 196.19554 135.088822 193.59554 135.088822 
L 167.59554 135.088822 
Q 164.99554 135.088822 164.99554 137.688822 
L 164.99554 150.631947 
Q 164.99554 153.231947 167.59554 153.231947 
z
" clip-path="url(#p8dd5b5c33e)" style="fill: #ffffff; opacity: 0.78"/>
    </g>
    <g clip-path="url(#p8dd5b5c33e)">
     <!-- 많다 -->
     <g transform="translate(167.59554 147.558666) scale(0.13 -0.13)">
      <defs>
       <path id="MalgunGothic-b9ce" d="M 5125 3681 
L 5125 2509 
L 4659 2509 
L 4659 5466 
L 5125 5466 
L 5125 4097 
L 6034 4097 
L 6034 3681 
L 5125 3681 
z
M 756 2663 
L 756 5241 
L 3494 5241 
L 3494 2663 
L 756 2663 
z
M 3034 4825 
L 1216 4825 
L 1216 3072 
L 3034 3072 
L 3034 4825 
z
M 2731 1388 
L 2731 1806 
L 3956 1806 
L 3956 2463 
L 4416 2463 
L 4416 1806 
L 5650 1806 
L 5650 1388 
L 2731 1388 
z
M 2853 -281 
Q 2169 -347 1044 -347 
L 1044 1953 
L 1503 1953 
L 1503 56 
Q 2266 56 2828 116 
L 2853 -281 
z
M 4191 -459 
Q 3619 -459 3297 -250 
Q 2975 -41 2975 325 
Q 2975 694 3300 906 
Q 3625 1119 4191 1119 
Q 4759 1119 5084 906 
Q 5409 694 5409 325 
Q 5409 -41 5086 -250 
Q 4763 -459 4191 -459 
z
M 4191 744 
Q 3831 744 3628 631 
Q 3425 519 3425 325 
Q 3425 134 3629 21 
Q 3834 -91 4191 -91 
Q 4550 -91 4754 23 
Q 4959 138 4959 325 
Q 4959 516 4756 630 
Q 4553 744 4191 744 
z
" transform="scale(0.015625)"/>
       <path id="MalgunGothic-b2e4" d="M 5094 2669 
L 5094 -563 
L 4628 -563 
L 4628 5466 
L 5094 5466 
L 5094 3091 
L 6156 3091 
L 6156 2669 
L 5094 2669 
z
M 4050 1234 
Q 3538 1172 3003 1159 
Q 2469 1147 838 1147 
L 838 4934 
L 3653 4934 
L 3653 4519 
L 1306 4519 
L 1306 1563 
Q 3566 1563 4013 1638 
L 4050 1234 
z
" transform="scale(0.015625)"/>
      </defs>
      <use xlink:href="#MalgunGothic-b9ce"/>
      <use xlink:href="#MalgunGothic-b2e4" transform="translate(100 0)"/>
     </g>
    </g>
   </g>
   <g id="text_2">
    <g id="patch_3">
     <path d="M 518.122596 264.634409 
L 544.122596 264.634409 
Q 546.722596 264.634409 546.722596 262.034409 
L 546.722596 249.091284 
Q 546.722596 246.491284 544.122596 246.491284 
L 518.122596 246.491284 
Q 515.522596 246.491284 515.522596 249.091284 
L 515.522596 262.034409 
Q 515.522596 264.634409 518.122596 264.634409 
z
" clip-path="url(#p8dd5b5c33e)" style="fill: #ffffff; opacity: 0.78"/>
    </g>
    <g clip-path="url(#p8dd5b5c33e)">
     <!-- 사랑 -->
     <g transform="translate(518.122596 258.961128) scale(0.13 -0.13)">
      <defs>
       <path id="MalgunGothic-c0ac" d="M 5094 2600 
L 5094 -563 
L 4628 -563 
L 4628 5466 
L 5094 5466 
L 5094 3016 
L 6138 3016 
L 6138 2600 
L 5094 2600 
z
M 3744 966 
Q 3234 1356 2800 1936 
Q 2366 2516 2234 2950 
Q 2094 2472 1672 1883 
Q 1250 1294 738 891 
L 378 1203 
Q 1116 1703 1556 2479 
Q 1997 3256 1997 4063 
L 1997 5050 
L 2463 5050 
L 2463 4084 
Q 2463 3297 2898 2553 
Q 3334 1809 4072 1331 
L 3744 966 
z
" transform="scale(0.015625)"/>
       <path id="MalgunGothic-b791" d="M 5125 3450 
L 5125 1934 
L 4659 1934 
L 4659 5466 
L 5125 5466 
L 5125 3866 
L 6034 3866 
L 6034 3450 
L 5125 3450 
z
M 4078 2350 
Q 3588 2269 3083 2251 
Q 2578 2234 825 2234 
L 825 3981 
L 3053 3981 
L 3053 4794 
L 825 4794 
L 825 5203 
L 3519 5203 
L 3519 3578 
L 1294 3578 
L 1294 2644 
Q 2741 2644 3198 2662 
Q 3656 2681 4000 2747 
L 4078 2350 
z
M 3263 -481 
Q 2306 -481 1803 -184 
Q 1300 113 1300 616 
Q 1300 1122 1808 1419 
Q 2316 1716 3263 1716 
Q 4209 1716 4718 1422 
Q 5228 1128 5228 616 
Q 5228 106 4725 -187 
Q 4222 -481 3263 -481 
z
M 3263 1319 
Q 2547 1319 2172 1134 
Q 1797 950 1797 616 
Q 1797 278 2175 97 
Q 2553 -84 3263 -84 
Q 3981 -84 4359 98 
Q 4738 281 4738 616 
Q 4738 947 4363 1133 
Q 3988 1319 3263 1319 
z
" transform="scale(0.015625)"/>
      </defs>
      <use xlink:href="#MalgunGothic-c0ac"/>
      <use xlink:href="#MalgunGothic-b791" transform="translate(100 0)"/>
     </g>
    </g>
   </g>
   <g id="text_3">
    <g id="patch_4">
     <path d="M 592.75484 241.679312 
L 631.75484 241.679312 
Q 634.35484 241.679312 634.35484 239.079312 
L 634.35484 226.136187 
Q 634.35484 223.536187 631.75484 223.536187 
L 592.75484 223.536187 
Q 590.15484 223.536187 590.15484 226.136187 
L 590.15484 239.079312 
Q 590.15484 241.679312 592.75484 241.679312 
z
" clip-path="url(#p8dd5b5c33e)" style="fill: #ffffff; opacity: 0.78"/>
    </g>
    <g clip-path="url(#p8dd5b5c33e)">
     <!-- 고맙다 -->
     <g transform="translate(592.75484 236.006031) scale(0.13 -0.13)">
      <defs>
       <path id="MalgunGothic-ace0" d="M 4959 1656 
L 4506 1697 
Q 4616 2694 4616 3534 
L 4616 4475 
L 1216 4475 
L 1216 4897 
L 5081 4897 
L 5081 3525 
Q 5081 2613 4959 1656 
z
M 403 513 
L 403 934 
L 2625 934 
L 2625 2900 
L 3091 2900 
L 3091 934 
L 5997 934 
L 5997 513 
L 403 513 
z
" transform="scale(0.015625)"/>
       <path id="MalgunGothic-b9d9" d="M 5125 3584 
L 5125 2400 
L 4659 2400 
L 4659 5466 
L 5125 5466 
L 5125 4000 
L 6034 4000 
L 6034 3584 
L 5125 3584 
z
M 756 2572 
L 756 5222 
L 3494 5222 
L 3494 2572 
L 756 2572 
z
M 3034 4806 
L 1216 4806 
L 1216 2981 
L 3034 2981 
L 3034 4806 
z
M 1447 -397 
L 1447 2069 
L 1906 2069 
L 1906 1203 
L 4666 1203 
L 4666 2069 
L 5125 2069 
L 5125 -397 
L 1447 -397 
z
M 4666 794 
L 1906 794 
L 1906 13 
L 4666 13 
L 4666 794 
z
" transform="scale(0.015625)"/>
      </defs>
      <use xlink:href="#MalgunGothic-ace0"/>
      <use xlink:href="#MalgunGothic-b9d9" transform="translate(100 0)"/>
      <use xlink:href="#MalgunGothic-b2e4" transform="translate(200 0)"/>
     </g>
    </g>
   </g>
   <g id="text_4">
    <g id="patch_5">
     <path d="M 634.445228 315.671614 
L 660.445228 315.671614 
Q 663.045228 315.671614 663.045228 313.071614 
L 663.045228 300.128489 
Q 663.045228 297.528489 660.445228 297.528489 
L 634.445228 297.528489 
Q 631.845228 297.528489 631.845228 300.128489 
L 631.845228 313.071614 
Q 631.845228 315.671614 634.445228 315.671614 
z
" clip-path="url(#p8dd5b5c33e)" style="fill: #ffffff; opacity: 0.78"/>
    </g>
    <g clip-path="url(#p8dd5b5c33e)">
     <!-- 플리 -->
     <g transform="translate(634.445228 309.998332) scale(0.13 -0.13)">
      <defs>
       <path id="MalgunGothic-d50c" d="M 1088 4928 
L 1088 5331 
L 5313 5331 
L 5313 4928 
L 1088 4928 
z
M 1013 3366 
L 1013 3769 
L 1913 3769 
L 1856 4709 
L 2316 4709 
L 2381 3769 
L 4019 3769 
L 4084 4709 
L 4544 4709 
L 4488 3769 
L 5388 3769 
L 5388 3366 
L 1013 3366 
z
M 403 2413 
L 403 2828 
L 5997 2828 
L 5997 2413 
L 403 2413 
z
M 1325 -416 
L 1325 947 
L 4616 947 
L 4616 1478 
L 1325 1478 
L 1325 1888 
L 5075 1888 
L 5075 544 
L 1784 544 
L 1784 0 
L 5234 0 
L 5234 -416 
L 1325 -416 
z
" transform="scale(0.015625)"/>
       <path id="MalgunGothic-b9ac" d="M 4884 -563 
L 4884 5466 
L 5350 5466 
L 5350 -563 
L 4884 -563 
z
M 856 738 
L 856 3128 
L 3150 3128 
L 3150 4519 
L 856 4519 
L 856 4934 
L 3616 4934 
L 3616 2725 
L 1325 2725 
L 1325 1153 
Q 3597 1153 4197 1281 
L 4250 878 
Q 3500 738 856 738 
z
" transform="scale(0.015625)"/>
      </defs>
      <use xlink:href="#MalgunGothic-d50c"/>
      <use xlink:href="#MalgunGothic-b9ac" transform="translate(100 0)"/>
     </g>
    </g>
   </g>
   <g id="text_5">
    <g id="patch_6">
     <path d="M 193.255098 236.889042 
L 219.255098 236.889042 
Q 221.855098 236.889042 221.855098 234.289042 
L 221.855098 221.345917 
Q 221.855098 218.745917 219.255098 218.745917 
L 193.255098 218.745917 
Q 190.655098 218.745917 190.655098 221.345917 
L 190.655098 234.289042 
Q 190.655098 236.889042 193.255098 236.889042 
z
" clip-path="url(#p8dd5b5c33e)" style="fill: #ffffff; opacity: 0.78"/>
    </g>
    <g clip-path="url(#p8dd5b5c33e)">
     <!-- 하나 -->
     <g transform="translate(193.255098 231.215761) scale(0.13 -0.13)">
      <defs>
       <path id="MalgunGothic-d558" d="M 5094 2278 
L 5094 -563 
L 4628 -563 
L 4628 5466 
L 5094 5466 
L 5094 2694 
L 6113 2694 
L 6113 2278 
L 5094 2278 
z
M 469 4084 
L 469 4506 
L 2022 4506 
L 2022 5466 
L 2491 5466 
L 2491 4506 
L 4050 4506 
L 4050 4084 
L 469 4084 
z
M 2253 934 
Q 1588 934 1166 1318 
Q 744 1703 744 2272 
Q 744 2850 1166 3233 
Q 1588 3616 2259 3616 
Q 2928 3616 3351 3231 
Q 3775 2847 3775 2266 
Q 3775 1694 3351 1314 
Q 2928 934 2253 934 
z
M 2259 3219 
Q 1797 3219 1500 2941 
Q 1203 2663 1203 2272 
Q 1203 1884 1501 1607 
Q 1800 1331 2259 1331 
Q 2719 1331 3017 1607 
Q 3316 1884 3316 2272 
Q 3316 2663 3019 2941 
Q 2722 3219 2259 3219 
z
" transform="scale(0.015625)"/>
       <path id="MalgunGothic-b098" d="M 5094 2600 
L 5094 -563 
L 4628 -563 
L 4628 5466 
L 5094 5466 
L 5094 3016 
L 6138 3016 
L 6138 2600 
L 5094 2600 
z
M 4122 1375 
Q 3816 1300 3300 1279 
Q 2784 1259 844 1259 
L 844 4966 
L 1313 4966 
L 1313 1678 
L 2456 1672 
Q 3066 1672 3456 1698 
Q 3847 1725 4056 1766 
L 4122 1375 
z
" transform="scale(0.015625)"/>
      </defs>
      <use xlink:href="#MalgunGothic-d558"/>
      <use xlink:href="#MalgunGothic-b098" transform="translate(100 0)"/>
     </g>
    </g>
   </g>
   <g id="text_6">
    <g id="patch_7">
     <path d="M 900.606159 485.297724 
L 926.606159 485.297724 
Q 929.206159 485.297724 929.206159 482.697724 
L 929.206159 469.754599 
Q 929.206159 467.154599 926.606159 467.154599 
L 900.606159 467.154599 
Q 898.006159 467.154599 898.006159 469.754599 
L 898.006159 482.697724 
Q 898.006159 485.297724 900.606159 485.297724 
z
" clip-path="url(#p8dd5b5c33e)" style="fill: #ffffff; opacity: 0.78"/>
    </g>
    <g clip-path="url(#p8dd5b5c33e)">
     <!-- 예준 -->
     <g transform="translate(900.606159 479.624442) scale(0.13 -0.13)">
      <defs>
       <path id="MalgunGothic-c608" d="M 5069 -563 
L 5069 5466 
L 5538 5466 
L 5538 -563 
L 5069 -563 
z
M 3091 1856 
Q 2775 928 1947 928 
Q 1325 928 986 1470 
Q 647 2013 647 3016 
Q 647 4016 986 4558 
Q 1325 5100 1947 5100 
Q 2763 5100 3078 4206 
L 3981 4206 
L 3981 5344 
L 4447 5344 
L 4447 -500 
L 3981 -500 
L 3981 1856 
L 3091 1856 
z
M 1947 4678 
Q 1094 4678 1094 3016 
Q 1094 1350 1947 1350 
Q 2797 1350 2797 3016 
Q 2797 4678 1947 4678 
z
M 3194 2266 
L 3981 2266 
L 3981 3794 
L 3188 3794 
Q 3250 3413 3250 3016 
Q 3250 2597 3194 2266 
z
" transform="scale(0.015625)"/>
       <path id="MalgunGothic-c900" d="M 5459 3078 
Q 4725 3191 4092 3536 
Q 3459 3881 3206 4263 
Q 2988 3925 2334 3556 
Q 1681 3188 972 3084 
L 697 3463 
Q 1541 3531 2203 3934 
Q 2866 4338 2963 4800 
L 1025 4800 
L 1025 5222 
L 5375 5222 
L 5375 4800 
L 3438 4800 
Q 3534 4331 4187 3928 
Q 4841 3525 5703 3463 
L 5459 3078 
z
M 3438 2088 
L 3438 603 
L 2963 603 
L 2963 2088 
L 403 2088 
L 403 2503 
L 5997 2503 
L 5997 2088 
L 3438 2088 
z
M 1325 -359 
L 1325 1459 
L 1791 1459 
L 1791 56 
L 5203 56 
L 5203 -359 
L 1325 -359 
z
" transform="scale(0.015625)"/>
      </defs>
      <use xlink:href="#MalgunGothic-c608"/>
      <use xlink:href="#MalgunGothic-c900" transform="translate(100 0)"/>
     </g>
    </g>
   </g>
   <g id="text_7">
    <g id="patch_8">
     <path d="M 976.08728 546.12843 
L 1002.08728 546.12843 
Q 1004.68728 546.12843 1004.68728 543.52843 
L 1004.68728 530.585305 
Q 1004.68728 527.985305 1002.08728 527.985305 
L 976.08728 527.985305 
Q 973.48728 527.985305 973.48728 530.585305 
L 973.48728 543.52843 
Q 973.48728 546.12843 976.08728 546.12843 
z
" clip-path="url(#p8dd5b5c33e)" style="fill: #ffffff; opacity: 0.78"/>
    </g>
    <g clip-path="url(#p8dd5b5c33e)">
     <!-- 노아 -->
     <g transform="translate(976.08728 540.455148) scale(0.13 -0.13)">
      <defs>
       <path id="MalgunGothic-b178" d="M 1281 4934 
L 1747 4934 
L 1747 2834 
L 5241 2834 
L 5241 2413 
L 3438 2413 
L 3438 831 
L 5997 831 
L 5997 409 
L 403 409 
L 403 831 
L 2963 831 
L 2963 2413 
L 1281 2413 
L 1281 4934 
z
" transform="scale(0.015625)"/>
       <path id="MalgunGothic-c544" d="M 5094 2600 
L 5094 -563 
L 4628 -563 
L 4628 5466 
L 5094 5466 
L 5094 3022 
L 6113 3022 
L 6113 2600 
L 5094 2600 
z
M 2194 966 
Q 1509 966 1087 1512 
Q 666 2059 666 3016 
Q 666 3981 1083 4522 
Q 1500 5063 2194 5063 
Q 2891 5063 3308 4514 
Q 3725 3966 3725 3016 
Q 3725 2063 3306 1514 
Q 2888 966 2194 966 
z
M 2194 4647 
Q 1716 4647 1420 4208 
Q 1125 3769 1125 3016 
Q 1125 2275 1423 1828 
Q 1722 1381 2194 1381 
Q 2663 1381 2963 1831 
Q 3263 2281 3263 3016 
Q 3263 3766 2969 4206 
Q 2675 4647 2194 4647 
z
" transform="scale(0.015625)"/>
      </defs>
      <use xlink:href="#MalgunGothic-b178"/>
      <use xlink:href="#MalgunGothic-c544" transform="translate(100 0)"/>
     </g>
    </g>
   </g>
   <g id="text_8">
    <g id="patch_9">
     <path d="M 770.254122 401.650301 
L 809.254122 401.650301 
Q 811.854122 401.650301 811.854122 399.050301 
L 811.854122 386.107176 
Q 811.854122 383.507176 809.254122 383.507176 
L 770.254122 383.507176 
Q 767.654122 383.507176 767.654122 386.107176 
L 767.654122 399.050301 
Q 767.654122 401.650301 770.254122 401.650301 
z
" clip-path="url(#p8dd5b5c33e)" style="fill: #ffffff; opacity: 0.78"/>
    </g>
    <g clip-path="url(#p8dd5b5c33e)">
     <!-- 귀엽다 -->
     <g transform="translate(770.254122 395.97702) scale(0.13 -0.13)">
      <defs>
       <path id="MalgunGothic-adc0" d="M 4997 -563 
L 4997 5466 
L 5466 5466 
L 5466 -563 
L 4997 -563 
z
M 2266 -391 
L 2266 2303 
Q 1122 2278 469 2278 
L 422 2694 
Q 1606 2694 3353 2734 
Q 3419 3353 3419 4744 
L 1113 4744 
L 1113 5159 
L 3878 5159 
Q 3878 3675 3809 2747 
L 4616 2784 
L 4641 2381 
Q 3913 2338 2731 2309 
L 2731 -391 
L 2266 -391 
z
" transform="scale(0.015625)"/>
       <path id="MalgunGothic-c5fd" d="M 3622 3009 
Q 3166 2456 2400 2456 
Q 1741 2456 1306 2886 
Q 872 3316 872 3938 
Q 872 4556 1305 4982 
Q 1738 5409 2400 5409 
Q 3200 5409 3653 4819 
L 4947 4819 
L 4947 5466 
L 5416 5466 
L 5416 2350 
L 4947 2350 
L 4947 3009 
L 3622 3009 
z
M 2400 5006 
Q 1922 5006 1626 4698 
Q 1331 4391 1331 3938 
Q 1331 3475 1628 3164 
Q 1925 2853 2400 2853 
Q 2875 2853 3175 3162 
Q 3475 3472 3475 3938 
Q 3475 4394 3176 4700 
Q 2878 5006 2400 5006 
z
M 3853 3419 
L 4947 3419 
L 4947 4416 
L 3866 4416 
Q 3950 4156 3950 3938 
Q 3950 3666 3853 3419 
z
M 1709 -422 
L 1709 2016 
L 2169 2016 
L 2169 1153 
L 4953 1153 
L 4953 2016 
L 5416 2016 
L 5416 -422 
L 1709 -422 
z
M 4953 744 
L 2169 744 
L 2169 -6 
L 4953 -6 
L 4953 744 
z
" transform="scale(0.015625)"/>
      </defs>
      <use xlink:href="#MalgunGothic-adc0"/>
      <use xlink:href="#MalgunGothic-c5fd" transform="translate(100 0)"/>
      <use xlink:href="#MalgunGothic-b2e4" transform="translate(200 0)"/>
     </g>
    </g>
   </g>
   <g id="text_9">
    <g id="patch_10">
     <path d="M 570.091171 291.441108 
L 622.091171 291.441108 
Q 624.691171 291.441108 624.691171 288.841108 
L 624.691171 275.897983 
Q 624.691171 273.297983 622.091171 273.297983 
L 570.091171 273.297983 
Q 567.491171 273.297983 567.491171 275.897983 
L 567.491171 288.841108 
Q 567.491171 291.441108 570.091171 291.441108 
z
" clip-path="url(#p8dd5b5c33e)" style="fill: #ffffff; opacity: 0.78"/>
    </g>
    <g clip-path="url(#p8dd5b5c33e)">
     <!-- 행복하다 -->
     <g transform="translate(570.091171 285.767826) scale(0.13 -0.13)">
      <defs>
       <path id="MalgunGothic-d589" d="M 5075 1772 
L 5075 3231 
L 4372 3231 
L 4372 1947 
L 3909 1947 
L 3909 5344 
L 4372 5344 
L 4372 3641 
L 5075 3641 
L 5075 5466 
L 5538 5466 
L 5538 1772 
L 5075 1772 
z
M 459 4275 
L 459 4684 
L 1784 4684 
L 1784 5416 
L 2247 5416 
L 2247 4684 
L 3559 4684 
L 3559 4275 
L 459 4275 
z
M 2022 1997 
Q 1431 1997 1070 2284 
Q 709 2572 709 3003 
Q 709 3438 1071 3722 
Q 1434 4006 2022 4006 
Q 2609 4006 2971 3722 
Q 3334 3438 3334 3003 
Q 3334 2569 2976 2283 
Q 2619 1997 2022 1997 
z
M 2022 3622 
Q 1656 3622 1404 3448 
Q 1153 3275 1153 3003 
Q 1153 2738 1406 2563 
Q 1659 2388 2022 2388 
Q 2391 2388 2645 2563 
Q 2900 2738 2900 3003 
Q 2900 3275 2644 3448 
Q 2388 3622 2022 3622 
z
M 3547 -513 
Q 2556 -513 2036 -227 
Q 1516 59 1516 569 
Q 1516 1084 2037 1367 
Q 2559 1650 3547 1650 
Q 4534 1650 5054 1364 
Q 5575 1078 5575 569 
Q 5575 63 5056 -225 
Q 4538 -513 3547 -513 
z
M 3547 1253 
Q 2016 1253 2016 569 
Q 2016 -116 3547 -116 
Q 5081 -116 5081 569 
Q 5081 1253 3547 1253 
z
" transform="scale(0.015625)"/>
       <path id="MalgunGothic-bcf5" d="M 403 1984 
L 403 2400 
L 2963 2400 
L 2963 3097 
L 1356 3097 
L 1356 5350 
L 1819 5350 
L 1819 4647 
L 4581 4647 
L 4581 5350 
L 5044 5350 
L 5044 3097 
L 3438 3097 
L 3438 2400 
L 5997 2400 
L 5997 1984 
L 403 1984 
z
M 4581 4231 
L 1819 4231 
L 1819 3506 
L 4581 3506 
L 4581 4231 
z
M 4609 -563 
L 4609 966 
L 1197 966 
L 1197 1381 
L 5075 1381 
L 5075 -563 
L 4609 -563 
z
" transform="scale(0.015625)"/>
      </defs>
      <use xlink:href="#MalgunGothic-d589"/>
      <use xlink:href="#MalgunGothic-bcf5" transform="translate(100 0)"/>
      <use xlink:href="#MalgunGothic-d558" transform="translate(200 0)"/>
      <use xlink:href="#MalgunGothic-b2e4" transform="translate(300 0)"/>
     </g>
    </g>
   </g>
   <g id="text_10">
    <g id="patch_11">
     <path d="M 251.930887 161.837846 
L 277.930887 161.837846 
Q 280.530887 161.837846 280.530887 159.237846 
L 280.530887 146.294721 
Q 280.530887 143.694721 277.930887 143.694721 
L 251.930887 143.694721 
Q 249.330887 143.694721 249.330887 146.294721 
L 249.330887 159.237846 
Q 249.330887 161.837846 251.930887 161.837846 
z
" clip-path="url(#p8dd5b5c33e)" style="fill: #ffffff; opacity: 0.78"/>
    </g>
    <g clip-path="url(#p8dd5b5c33e)">
     <!-- 고생 -->
     <g transform="translate(251.930887 156.164565) scale(0.13 -0.13)">
      <defs>
       <path id="MalgunGothic-c0dd" d="M 4991 1953 
L 4991 3463 
L 4288 3463 
L 4288 2113 
L 3822 2113 
L 3822 5344 
L 4288 5344 
L 4288 3866 
L 4991 3866 
L 4991 5466 
L 5459 5466 
L 5459 1953 
L 4991 1953 
z
M 3138 2406 
Q 2794 2603 2431 3009 
Q 2069 3416 1941 3725 
Q 1828 3369 1467 2930 
Q 1106 2491 716 2253 
L 384 2566 
Q 981 2881 1345 3442 
Q 1709 4003 1709 4616 
L 1709 5253 
L 2156 5253 
L 2156 4616 
Q 2156 4038 2536 3514 
Q 2916 2991 3444 2753 
L 3138 2406 
z
M 3488 -459 
Q 2538 -459 2008 -139 
Q 1478 181 1478 691 
Q 1478 1200 2008 1522 
Q 2538 1844 3488 1844 
Q 4444 1844 4973 1522 
Q 5503 1200 5503 691 
Q 5503 181 4973 -139 
Q 4444 -459 3488 -459 
z
M 3488 1447 
Q 2756 1447 2364 1233 
Q 1972 1019 1972 691 
Q 1972 359 2367 148 
Q 2763 -63 3488 -63 
Q 4209 -63 4607 146 
Q 5006 356 5006 691 
Q 5006 1022 4609 1234 
Q 4213 1447 3488 1447 
z
" transform="scale(0.015625)"/>
      </defs>
      <use xlink:href="#MalgunGothic-ace0"/>
      <use xlink:href="#MalgunGothic-c0dd" transform="translate(100 0)"/>
     </g>
    </g>
   </g>
   <g id="text_11">
    <g id="patch_12">
     <path d="M 963.102959 504.735442 
L 989.102959 504.735442 
Q 991.702959 504.735442 991.702959 502.135442 
L 991.702959 489.192317 
Q 991.702959 486.592317 989.102959 486.592317 
L 963.102959 486.592317 
Q 960.502959 486.592317 960.502959 489.192317 
L 960.502959 502.135442 
Q 960.502959 504.735442 963.102959 504.735442 
z
" clip-path="url(#p8dd5b5c33e)" style="fill: #ffffff; opacity: 0.78"/>
    </g>
    <g clip-path="url(#p8dd5b5c33e)">
     <!-- 밤비 -->
     <g transform="translate(963.102959 499.062161) scale(0.13 -0.13)">
      <defs>
       <path id="MalgunGothic-bc24" d="M 5125 3469 
L 5125 2100 
L 4659 2100 
L 4659 5466 
L 5125 5466 
L 5125 3884 
L 6034 3884 
L 6034 3469 
L 5125 3469 
z
M 756 2425 
L 756 5228 
L 1216 5228 
L 1216 4178 
L 3059 4178 
L 3059 5228 
L 3519 5228 
L 3519 2425 
L 756 2425 
z
M 3059 3763 
L 1216 3763 
L 1216 2834 
L 3059 2834 
L 3059 3763 
z
M 1447 -397 
L 1447 1766 
L 5125 1766 
L 5125 -397 
L 1447 -397 
z
M 4666 1350 
L 1906 1350 
L 1906 13 
L 4666 13 
L 4666 1350 
z
" transform="scale(0.015625)"/>
       <path id="MalgunGothic-be44" d="M 4884 -563 
L 4884 5466 
L 5350 5466 
L 5350 -563 
L 4884 -563 
z
M 825 1081 
L 825 5013 
L 1294 5013 
L 1294 3469 
L 3244 3469 
L 3244 5013 
L 3713 5013 
L 3713 1081 
L 825 1081 
z
M 3244 3053 
L 1294 3053 
L 1294 1497 
L 3244 1497 
L 3244 3053 
z
" transform="scale(0.015625)"/>
      </defs>
      <use xlink:href="#MalgunGothic-bc24"/>
      <use xlink:href="#MalgunGothic-be44" transform="translate(100 0)"/>
     </g>
    </g>
   </g>
   <g id="text_12">
    <g id="patch_13">
     <path d="M 413.460257 278.034019 
L 439.460257 278.034019 
Q 442.060257 278.034019 442.060257 275.434019 
L 442.060257 262.490894 
Q 442.060257 259.890894 439.460257 259.890894 
L 413.460257 259.890894 
Q 410.860257 259.890894 410.860257 262.490894 
L 410.860257 275.434019 
Q 410.860257 278.034019 413.460257 278.034019 
z
" clip-path="url(#p8dd5b5c33e)" style="fill: #ffffff; opacity: 0.78"/>
    </g>
    <g clip-path="url(#p8dd5b5c33e)">
     <!-- 이유 -->
     <g transform="translate(413.460257 272.360738) scale(0.13 -0.13)">
      <defs>
       <path id="MalgunGothic-c774" d="M 4947 -563 
L 4947 5466 
L 5416 5466 
L 5416 -563 
L 4947 -563 
z
M 2284 959 
Q 1597 959 1173 1514 
Q 750 2069 750 3016 
Q 750 3975 1169 4522 
Q 1588 5069 2284 5069 
Q 2978 5069 3403 4522 
Q 3828 3975 3828 3016 
Q 3828 2063 3401 1511 
Q 2975 959 2284 959 
z
M 2284 4653 
Q 1803 4653 1503 4204 
Q 1203 3756 1203 3016 
Q 1203 2278 1506 1826 
Q 1809 1375 2284 1375 
Q 2756 1375 3061 1828 
Q 3366 2281 3366 3016 
Q 3366 3759 3067 4206 
Q 2769 4653 2284 4653 
z
" transform="scale(0.015625)"/>
       <path id="MalgunGothic-c720" d="M 3200 2784 
Q 2278 2784 1768 3131 
Q 1259 3478 1259 4078 
Q 1259 4669 1775 5025 
Q 2291 5381 3200 5381 
Q 4128 5381 4640 5025 
Q 5153 4669 5153 4078 
Q 5153 3484 4640 3134 
Q 4128 2784 3200 2784 
z
M 3200 4978 
Q 2513 4978 2130 4736 
Q 1747 4494 1747 4078 
Q 1747 3669 2130 3425 
Q 2513 3181 3200 3181 
Q 3888 3181 4270 3425 
Q 4653 3669 4653 4078 
Q 4653 4494 4270 4736 
Q 3888 4978 3200 4978 
z
M 1913 -556 
L 1913 1672 
L 403 1672 
L 403 2094 
L 5997 2094 
L 5997 1672 
L 4488 1672 
L 4488 -556 
L 4019 -556 
L 4019 1672 
L 2381 1672 
L 2381 -556 
L 1913 -556 
z
" transform="scale(0.015625)"/>
      </defs>
      <use xlink:href="#MalgunGothic-c774"/>
      <use xlink:href="#MalgunGothic-c720" transform="translate(100 0)"/>
     </g>
    </g>
   </g>
   <g id="text_13">
    <g id="patch_14">
     <path d="M 296.23471 270.522466 
L 322.23471 270.522466 
Q 324.83471 270.522466 324.83471 267.922466 
L 324.83471 254.979341 
Q 324.83471 252.379341 322.23471 252.379341 
L 296.23471 252.379341 
Q 293.63471 252.379341 293.63471 254.979341 
L 293.63471 267.922466 
Q 293.63471 270.522466 296.23471 270.522466 
z
" clip-path="url(#p8dd5b5c33e)" style="fill: #ffffff; opacity: 0.78"/>
    </g>
    <g clip-path="url(#p8dd5b5c33e)">
     <!-- 없다 -->
     <g transform="translate(296.23471 264.849185) scale(0.13 -0.13)">
      <defs>
       <path id="MalgunGothic-c5c6" d="M 3897 4159 
L 4959 4159 
L 4959 5459 
L 5428 5459 
L 5428 2344 
L 4959 2344 
L 4959 3744 
L 3897 3744 
Q 3816 3181 3391 2842 
Q 2966 2503 2375 2503 
Q 1713 2503 1278 2918 
Q 844 3334 844 3950 
Q 844 4559 1273 4976 
Q 1703 5394 2375 5394 
Q 2966 5394 3389 5055 
Q 3813 4716 3897 4159 
z
M 2375 4991 
Q 1903 4991 1608 4697 
Q 1313 4403 1313 3950 
Q 1313 3488 1605 3194 
Q 1897 2900 2375 2900 
Q 2856 2900 3150 3197 
Q 3444 3494 3444 3950 
Q 3444 4397 3148 4694 
Q 2853 4991 2375 4991 
z
M 5741 -531 
Q 5428 -303 5147 47 
Q 4866 397 4788 647 
Q 4675 338 4379 -7 
Q 4084 -353 3794 -531 
L 3506 -184 
Q 3994 50 4284 511 
Q 4575 972 4575 1538 
L 4575 1997 
L 4997 1997 
L 4997 1538 
Q 4997 988 5284 519 
Q 5572 50 6053 -184 
L 5741 -531 
z
M 1331 -441 
L 1331 1984 
L 1772 1984 
L 1772 1119 
L 3003 1119 
L 3003 1984 
L 3438 1984 
L 3438 -441 
L 1331 -441 
z
M 3003 738 
L 1772 738 
L 1772 -56 
L 3003 -56 
L 3003 738 
z
" transform="scale(0.015625)"/>
      </defs>
      <use xlink:href="#MalgunGothic-c5c6"/>
      <use xlink:href="#MalgunGothic-b2e4" transform="translate(100 0)"/>
     </g>
    </g>
   </g>
   <g id="text_14">
    <g id="patch_15">
     <path d="M 377.536964 203.288127 
L 429.536964 203.288127 
Q 432.136964 203.288127 432.136964 200.688127 
L 432.136964 187.745002 
Q 432.136964 185.145002 429.536964 185.145002 
L 377.536964 185.145002 
Q 374.936964 185.145002 374.936964 187.745002 
L 374.936964 200.688127 
Q 374.936964 203.288127 377.536964 203.288127 
z
" clip-path="url(#p8dd5b5c33e)" style="fill: #ffffff; opacity: 0.78"/>
    </g>
    <g clip-path="url(#p8dd5b5c33e)">
     <!-- 영원하다 -->
     <g transform="translate(377.536964 197.614846) scale(0.13 -0.13)">
      <defs>
       <path id="MalgunGothic-c601" d="M 3669 2816 
Q 3209 2247 2406 2247 
Q 1731 2247 1284 2676 
Q 838 3106 838 3781 
Q 838 4459 1284 4895 
Q 1731 5331 2406 5331 
Q 3231 5331 3694 4722 
L 4959 4722 
L 4959 5466 
L 5428 5466 
L 5428 1913 
L 4959 1913 
L 4959 2816 
L 3669 2816 
z
M 2406 4922 
Q 1919 4922 1609 4606 
Q 1300 4291 1300 3781 
Q 1300 3275 1609 2965 
Q 1919 2656 2406 2656 
Q 2894 2656 3206 2961 
Q 3519 3266 3519 3781 
Q 3519 4300 3206 4611 
Q 2894 4922 2406 4922 
z
M 3891 3225 
L 4959 3225 
L 4959 4313 
L 3903 4313 
Q 3988 4066 3988 3781 
Q 3988 3516 3891 3225 
z
M 3616 -506 
Q 2669 -506 2156 -182 
Q 1644 141 1644 659 
Q 1644 1178 2156 1501 
Q 2669 1825 3616 1825 
Q 4563 1825 5075 1500 
Q 5588 1175 5588 659 
Q 5588 144 5075 -181 
Q 4563 -506 3616 -506 
z
M 3616 1428 
Q 2909 1428 2523 1214 
Q 2138 1000 2138 659 
Q 2138 319 2523 105 
Q 2909 -109 3616 -109 
Q 4325 -109 4706 105 
Q 5088 319 5088 659 
Q 5088 1000 4706 1214 
Q 4325 1428 3616 1428 
z
" transform="scale(0.015625)"/>
       <path id="MalgunGothic-c6d0" d="M 4978 697 
L 4978 1344 
L 3659 1344 
L 3659 1759 
L 4978 1759 
L 4978 5466 
L 5453 5466 
L 5453 697 
L 4978 697 
z
M 2625 3059 
Q 1966 3059 1548 3390 
Q 1131 3722 1131 4213 
Q 1131 4697 1545 5026 
Q 1959 5356 2625 5356 
Q 3288 5356 3702 5029 
Q 4116 4703 4116 4213 
Q 4116 3719 3700 3389 
Q 3284 3059 2625 3059 
z
M 2625 4959 
Q 2163 4959 1881 4734 
Q 1600 4509 1600 4213 
Q 1600 3909 1881 3682 
Q 2163 3456 2625 3456 
Q 3088 3456 3370 3682 
Q 3653 3909 3653 4213 
Q 3653 4509 3370 4734 
Q 3088 4959 2625 4959 
z
M 4556 2291 
Q 4100 2259 2881 2209 
L 2881 909 
L 2419 909 
L 2419 2188 
Q 1209 2144 641 2144 
L 575 2578 
Q 2853 2578 4525 2694 
L 4556 2291 
z
M 1509 -403 
L 1509 1403 
L 1978 1403 
L 1978 13 
L 5600 13 
L 5600 -403 
L 1509 -403 
z
" transform="scale(0.015625)"/>
      </defs>
      <use xlink:href="#MalgunGothic-c601"/>
      <use xlink:href="#MalgunGothic-c6d0" transform="translate(100 0)"/>
      <use xlink:href="#MalgunGothic-d558" transform="translate(200 0)"/>
      <use xlink:href="#MalgunGothic-b2e4" transform="translate(300 0)"/>
     </g>
    </g>
   </g>
   <g id="text_15">
    <g id="patch_16">
     <path d="M 810.984335 404.426126 
L 875.984335 404.426126 
Q 878.584335 404.426126 878.584335 401.826126 
L 878.584335 388.883001 
Q 878.584335 386.283001 875.984335 386.283001 
L 810.984335 386.283001 
Q 808.384335 386.283001 808.384335 388.883001 
L 808.384335 401.826126 
Q 808.384335 404.426126 810.984335 404.426126 
z
" clip-path="url(#p8dd5b5c33e)" style="fill: #ffffff; opacity: 0.78"/>
    </g>
    <g clip-path="url(#p8dd5b5c33e)">
     <!-- 사랑스럽다 -->
     <g transform="translate(810.984335 398.752845) scale(0.13 -0.13)">
      <defs>
       <path id="MalgunGothic-c2a4" d="M 3194 3897 
Q 2969 3416 2328 2930 
Q 1688 2444 959 2247 
L 641 2619 
Q 1703 2841 2329 3472 
Q 2956 4103 2956 4659 
L 2956 4978 
L 3438 4978 
L 3438 4659 
Q 3438 4094 4073 3476 
Q 4709 2859 5759 2625 
L 5428 2253 
Q 4694 2481 4058 2956 
Q 3422 3431 3194 3897 
z
M 5997 447 
L 403 447 
L 403 863 
L 5997 863 
L 5997 447 
z
" transform="scale(0.015625)"/>
       <path id="MalgunGothic-b7fd" d="M 4947 2234 
L 4947 3609 
L 3834 3609 
L 3834 4019 
L 4947 4019 
L 4947 5466 
L 5416 5466 
L 5416 2234 
L 4947 2234 
z
M 4078 2566 
Q 3619 2491 3098 2470 
Q 2578 2450 1025 2450 
L 1025 4078 
L 3066 4078 
L 3066 4831 
L 1025 4831 
L 1025 5241 
L 3541 5241 
L 3541 3669 
L 1491 3669 
L 1491 2859 
Q 3575 2859 4013 2963 
L 4078 2566 
z
M 1709 -397 
L 1709 1900 
L 2169 1900 
L 2169 1125 
L 4953 1125 
L 4953 1900 
L 5416 1900 
L 5416 -397 
L 1709 -397 
z
M 4953 716 
L 2169 716 
L 2169 13 
L 4953 13 
L 4953 716 
z
" transform="scale(0.015625)"/>
      </defs>
      <use xlink:href="#MalgunGothic-c0ac"/>
      <use xlink:href="#MalgunGothic-b791" transform="translate(100 0)"/>
      <use xlink:href="#MalgunGothic-c2a4" transform="translate(200 0)"/>
      <use xlink:href="#MalgunGothic-b7fd" transform="translate(300 0)"/>
      <use xlink:href="#MalgunGothic-b2e4" transform="translate(400 0)"/>
     </g>
    </g>
   </g>
   <g id="text_16">
    <g id="patch_17">
     <path d="M 146.253105 85.192188 
L 172.253105 85.192188 
Q 174.853105 85.192188 174.853105 82.592188 
L 174.853105 69.649063 
Q 174.853105 67.049063 172.253105 67.049063 
L 146.253105 67.049063 
Q 143.653105 67.049063 143.653105 69.649063 
L 143.653105 82.592188 
Q 143.653105 85.192188 146.253105 85.192188 
z
" clip-path="url(#p8dd5b5c33e)" style="fill: #ffffff; opacity: 0.78"/>
    </g>
    <g clip-path="url(#p8dd5b5c33e)">
     <!-- 수고 -->
     <g transform="translate(146.253105 79.518907) scale(0.13 -0.13)">
      <defs>
       <path id="MalgunGothic-c218" d="M 5491 2994 
Q 4750 3097 4078 3498 
Q 3406 3900 3200 4275 
Q 2975 3891 2309 3491 
Q 1644 3091 922 2956 
L 634 3347 
Q 1559 3450 2261 3942 
Q 2963 4434 2963 5013 
L 2963 5275 
L 3431 5275 
L 3431 5013 
Q 3431 4431 4118 3948 
Q 4806 3466 5766 3378 
L 5491 2994 
z
M 3431 1838 
L 3431 -563 
L 2963 -563 
L 2963 1838 
L 403 1838 
L 403 2253 
L 5997 2253 
L 5997 1838 
L 3431 1838 
z
" transform="scale(0.015625)"/>
      </defs>
      <use xlink:href="#MalgunGothic-c218"/>
      <use xlink:href="#MalgunGothic-ace0" transform="translate(100 0)"/>
     </g>
    </g>
   </g>
   <g id="text_17">
    <g id="patch_18">
     <path d="M 619.68212 160.050855 
L 645.68212 160.050855 
Q 648.28212 160.050855 648.28212 157.450855 
L 648.28212 144.50773 
Q 648.28212 141.90773 645.68212 141.90773 
L 619.68212 141.90773 
Q 617.08212 141.90773 617.08212 144.50773 
L 617.08212 157.450855 
Q 617.08212 160.050855 619.68212 160.050855 
z
" clip-path="url(#p8dd5b5c33e)" style="fill: #ffffff; opacity: 0.78"/>
    </g>
    <g clip-path="url(#p8dd5b5c33e)">
     <!-- 마음 -->
     <g transform="translate(619.68212 154.377574) scale(0.13 -0.13)">
      <defs>
       <path id="MalgunGothic-b9c8" d="M 5094 2631 
L 5094 -563 
L 4628 -563 
L 4628 5466 
L 5094 5466 
L 5094 3047 
L 6138 3047 
L 6138 2631 
L 5094 2631 
z
M 800 1209 
L 800 4934 
L 3647 4934 
L 3647 1209 
L 800 1209 
z
M 3188 4525 
L 1269 4525 
L 1269 1619 
L 3188 1619 
L 3188 4525 
z
" transform="scale(0.015625)"/>
       <path id="MalgunGothic-c74c" d="M 3200 3103 
Q 2291 3103 1798 3426 
Q 1306 3750 1306 4269 
Q 1306 4788 1798 5111 
Q 2291 5434 3200 5434 
Q 4109 5434 4601 5111 
Q 5094 4788 5094 4269 
Q 5094 3750 4601 3426 
Q 4109 3103 3200 3103 
z
M 3200 5038 
Q 2525 5038 2161 4831 
Q 1797 4625 1797 4269 
Q 1797 3913 2161 3706 
Q 2525 3500 3200 3500 
Q 3875 3500 4239 3706 
Q 4603 3913 4603 4269 
Q 4603 4625 4239 4831 
Q 3875 5038 3200 5038 
z
M 403 2175 
L 403 2591 
L 5997 2591 
L 5997 2175 
L 403 2175 
z
M 1325 -384 
L 1325 1625 
L 5075 1625 
L 5075 -384 
L 1325 -384 
z
M 4609 1209 
L 1791 1209 
L 1791 31 
L 4609 31 
L 4609 1209 
z
" transform="scale(0.015625)"/>
      </defs>
      <use xlink:href="#MalgunGothic-b9c8"/>
      <use xlink:href="#MalgunGothic-c74c" transform="translate(100 0)"/>
     </g>
    </g>
   </g>
   <g id="text_18">
    <g id="patch_19">
     <path d="M 123.381257 291.600028 
L 149.381257 291.600028 
Q 151.981257 291.600028 151.981257 289.000028 
L 151.981257 276.056903 
Q 151.981257 273.456903 149.381257 273.456903 
L 123.381257 273.456903 
Q 120.781257 273.456903 120.781257 276.056903 
L 120.781257 289.000028 
Q 120.781257 291.600028 123.381257 291.600028 
z
" clip-path="url(#p8dd5b5c33e)" style="fill: #ffffff; opacity: 0.78"/>
    </g>
    <g clip-path="url(#p8dd5b5c33e)">
     <!-- 세상 -->
     <g transform="translate(123.381257 285.926747) scale(0.13 -0.13)">
      <defs>
       <path id="MalgunGothic-c138" d="M 5038 -563 
L 5038 5466 
L 5503 5466 
L 5503 -563 
L 5038 -563 
z
M 3944 -378 
L 3944 2975 
L 2894 2975 
L 2894 3391 
L 3944 3391 
L 3944 5344 
L 4403 5344 
L 4403 -378 
L 3944 -378 
z
M 3116 850 
Q 2306 1647 1984 2734 
Q 1881 2291 1529 1722 
Q 1178 1153 775 769 
L 409 1063 
Q 941 1438 1350 2248 
Q 1759 3059 1759 3834 
L 1759 5025 
L 2222 5025 
L 2222 3828 
Q 2222 3075 2589 2328 
Q 2956 1581 3469 1153 
L 3116 850 
z
" transform="scale(0.015625)"/>
       <path id="MalgunGothic-c0c1" d="M 5125 3391 
L 5125 1991 
L 4659 1991 
L 4659 5466 
L 5125 5466 
L 5125 3816 
L 6034 3816 
L 6034 3391 
L 5125 3391 
z
M 3603 2316 
Q 3206 2528 2778 2934 
Q 2350 3341 2188 3681 
Q 2022 3291 1609 2852 
Q 1197 2413 750 2163 
L 409 2484 
Q 1072 2806 1512 3397 
Q 1953 3988 1953 4628 
L 1953 5259 
L 2400 5259 
L 2400 4628 
Q 2400 4025 2845 3472 
Q 3291 2919 3909 2656 
L 3603 2316 
z
M 3263 -513 
Q 2322 -513 1811 -186 
Q 1300 141 1300 659 
Q 1300 1175 1812 1500 
Q 2325 1825 3263 1825 
Q 4203 1825 4715 1501 
Q 5228 1178 5228 659 
Q 5228 138 4717 -187 
Q 4206 -513 3263 -513 
z
M 3263 1428 
Q 2563 1428 2180 1215 
Q 1797 1003 1797 659 
Q 1797 309 2181 96 
Q 2566 -116 3263 -116 
Q 3969 -116 4353 98 
Q 4738 313 4738 659 
Q 4738 1000 4353 1214 
Q 3969 1428 3263 1428 
z
" transform="scale(0.015625)"/>
      </defs>
      <use xlink:href="#MalgunGothic-c138"/>
      <use xlink:href="#MalgunGothic-c0c1" transform="translate(100 0)"/>
     </g>
    </g>
   </g>
   <g id="text_19">
    <g id="patch_20">
     <path d="M 669.921392 197.904693 
L 708.921392 197.904693 
Q 711.521392 197.904693 711.521392 195.304693 
L 711.521392 182.361568 
Q 711.521392 179.761568 708.921392 179.761568 
L 669.921392 179.761568 
Q 667.321392 179.761568 667.321392 182.361568 
L 667.321392 195.304693 
Q 667.321392 197.904693 669.921392 197.904693 
z
" clip-path="url(#p8dd5b5c33e)" style="fill: #ffffff; opacity: 0.78"/>
    </g>
    <g clip-path="url(#p8dd5b5c33e)">
     <!-- 멋지다 -->
     <g transform="translate(669.921392 192.231411) scale(0.13 -0.13)">
      <defs>
       <path id="MalgunGothic-ba4b" d="M 850 2328 
L 850 5141 
L 3603 5141 
L 3603 3891 
L 4884 3891 
L 4884 5466 
L 5350 5466 
L 5350 1491 
L 4884 1491 
L 4884 3469 
L 3603 3469 
L 3603 2328 
L 850 2328 
z
M 3144 4716 
L 1319 4716 
L 1319 2747 
L 3144 2747 
L 3144 4716 
z
M 5575 -459 
Q 4922 -316 4325 96 
Q 3728 509 3463 984 
Q 3222 509 2614 95 
Q 2006 -319 1375 -459 
L 1081 -56 
Q 1938 69 2577 617 
Q 3216 1166 3225 1716 
L 3225 1850 
L 3694 1850 
L 3694 1716 
Q 3694 1181 4334 626 
Q 4975 72 5838 -56 
L 5575 -459 
z
" transform="scale(0.015625)"/>
       <path id="MalgunGothic-c9c0" d="M 4884 -563 
L 4884 5466 
L 5350 5466 
L 5350 -563 
L 4884 -563 
z
M 3775 909 
Q 3228 1338 2822 1881 
Q 2416 2425 2297 2859 
Q 2178 2397 1756 1814 
Q 1334 1231 825 825 
L 475 1147 
Q 1191 1638 1625 2425 
Q 2059 3213 2059 4019 
L 2059 4525 
L 716 4525 
L 716 4941 
L 3884 4941 
L 3884 4525 
L 2528 4525 
L 2528 4038 
Q 2528 3238 2968 2459 
Q 3409 1681 4097 1269 
L 3775 909 
z
" transform="scale(0.015625)"/>
      </defs>
      <use xlink:href="#MalgunGothic-ba4b"/>
      <use xlink:href="#MalgunGothic-c9c0" transform="translate(100 0)"/>
      <use xlink:href="#MalgunGothic-b2e4" transform="translate(200 0)"/>
     </g>
    </g>
   </g>
   <g id="text_20">
    <g id="patch_21">
     <path d="M 72.158621 159.403007 
L 98.158621 159.403007 
Q 100.758621 159.403007 100.758621 156.803007 
L 100.758621 143.859882 
Q 100.758621 141.259882 98.158621 141.259882 
L 72.158621 141.259882 
Q 69.558621 141.259882 69.558621 143.859882 
L 69.558621 156.803007 
Q 69.558621 159.403007 72.158621 159.403007 
z
" clip-path="url(#p8dd5b5c33e)" style="fill: #ffffff; opacity: 0.78"/>
    </g>
    <g clip-path="url(#p8dd5b5c33e)">
     <!-- 댓글 -->
     <g transform="translate(72.158621 153.729726) scale(0.13 -0.13)">
      <defs>
       <path id="MalgunGothic-b313" d="M 5056 1619 
L 5056 3297 
L 4353 3297 
L 4353 2016 
L 3891 2016 
L 3891 5344 
L 4353 5344 
L 4353 3713 
L 5056 3713 
L 5056 5466 
L 5522 5466 
L 5522 1619 
L 5056 1619 
z
M 3419 2431 
Q 2541 2381 863 2381 
L 863 5031 
L 3138 5031 
L 3138 4616 
L 1331 4616 
L 1331 2797 
L 1878 2797 
Q 2731 2797 3378 2847 
L 3419 2431 
z
M 5563 -428 
Q 4913 -284 4316 127 
Q 3719 538 3450 1019 
Q 3216 547 2606 131 
Q 1997 -284 1363 -428 
L 1069 -25 
Q 1897 88 2550 641 
Q 3203 1194 3213 1741 
L 3213 1947 
L 3681 1947 
L 3681 1747 
Q 3681 1213 4331 656 
Q 4981 100 5825 -25 
L 5563 -428 
z
" transform="scale(0.015625)"/>
       <path id="MalgunGothic-ae00" d="M 403 2834 
L 403 3250 
L 4594 3250 
Q 4634 3584 4634 4850 
L 1338 4850 
L 1338 5269 
L 5100 5269 
Q 5100 3853 5050 3250 
L 5997 3250 
L 5997 2834 
L 403 2834 
z
M 1356 -384 
L 1356 1113 
L 4609 1100 
L 4609 1747 
L 1356 1747 
L 1356 2163 
L 5069 2163 
L 5069 703 
L 1819 703 
L 1819 25 
L 5234 25 
L 5234 -384 
L 1356 -384 
z
" transform="scale(0.015625)"/>
      </defs>
      <use xlink:href="#MalgunGothic-b313"/>
      <use xlink:href="#MalgunGothic-ae00" transform="translate(100 0)"/>
     </g>
    </g>
   </g>
   <g id="text_21">
    <g id="patch_22">
     <path d="M 1040.141379 601.192187 
L 1079.141379 601.192187 
Q 1081.741379 601.192187 1081.741379 598.592187 
L 1081.741379 585.649062 
Q 1081.741379 583.049062 1079.141379 583.049062 
L 1040.141379 583.049062 
Q 1037.541379 583.049062 1037.541379 585.649062 
L 1037.541379 598.592187 
Q 1037.541379 601.192187 1040.141379 601.192187 
z
" clip-path="url(#p8dd5b5c33e)" style="fill: #ffffff; opacity: 0.78"/>
    </g>
    <g clip-path="url(#p8dd5b5c33e)">
     <!-- 목소리 -->
     <g transform="translate(1040.141379 595.518906) scale(0.13 -0.13)">
      <defs>
       <path id="MalgunGothic-baa9" d="M 403 2113 
L 403 2528 
L 2963 2528 
L 2963 3219 
L 1344 3219 
L 1344 5319 
L 5056 5319 
L 5056 3219 
L 3438 3219 
L 3438 2534 
L 5997 2534 
L 5997 2113 
L 403 2113 
z
M 4594 4909 
L 1806 4909 
L 1806 3628 
L 4594 3628 
L 4594 4909 
z
M 4609 -563 
L 4609 1106 
L 1197 1106 
L 1197 1522 
L 5075 1522 
L 5075 -563 
L 4609 -563 
z
" transform="scale(0.015625)"/>
       <path id="MalgunGothic-c18c" d="M 3194 3909 
Q 2963 3416 2330 2941 
Q 1697 2466 959 2259 
L 641 2631 
Q 1700 2872 2328 3497 
Q 2956 4122 2956 4666 
L 2956 4984 
L 3438 4984 
L 3438 4666 
Q 3438 4131 4069 3506 
Q 4700 2881 5759 2631 
L 5428 2266 
Q 4719 2481 4072 2957 
Q 3425 3434 3194 3909 
z
M 403 384 
L 403 800 
L 2963 800 
L 2963 2266 
L 3438 2266 
L 3438 800 
L 5997 800 
L 5997 384 
L 403 384 
z
" transform="scale(0.015625)"/>
      </defs>
      <use xlink:href="#MalgunGothic-baa9"/>
      <use xlink:href="#MalgunGothic-c18c" transform="translate(100 0)"/>
      <use xlink:href="#MalgunGothic-b9ac" transform="translate(200 0)"/>
     </g>
    </g>
   </g>
   <g id="text_22">
    <g id="patch_23">
     <path d="M 80.828957 90.501492 
L 106.828957 90.501492 
Q 109.428957 90.501492 109.428957 87.901492 
L 109.428957 74.958367 
Q 109.428957 72.358367 106.828957 72.358367 
L 80.828957 72.358367 
Q 78.228957 72.358367 78.228957 74.958367 
L 78.228957 87.901492 
Q 78.228957 90.501492 80.828957 90.501492 
z
" clip-path="url(#p8dd5b5c33e)" style="fill: #ffffff; opacity: 0.78"/>
    </g>
    <g clip-path="url(#p8dd5b5c33e)">
     <!-- 모든 -->
     <g transform="translate(80.828957 84.82821) scale(0.13 -0.13)">
      <defs>
       <path id="MalgunGothic-baa8" d="M 5063 4903 
L 5063 2175 
L 3438 2175 
L 3438 769 
L 5997 769 
L 5997 347 
L 403 347 
L 403 769 
L 2963 769 
L 2963 2175 
L 1331 2175 
L 1331 4903 
L 5063 4903 
z
M 4594 2600 
L 4594 4481 
L 1806 4481 
L 1806 2600 
L 4594 2600 
z
" transform="scale(0.015625)"/>
       <path id="MalgunGothic-b4e0" d="M 1344 3097 
L 1344 5228 
L 5056 5228 
L 5056 4813 
L 1813 4813 
L 1813 3519 
L 5119 3519 
L 5119 3097 
L 1344 3097 
z
M 403 1906 
L 403 2322 
L 5997 2322 
L 5997 1906 
L 403 1906 
z
M 1319 -359 
L 1319 1350 
L 1784 1350 
L 1784 56 
L 5203 56 
L 5203 -359 
L 1319 -359 
z
" transform="scale(0.015625)"/>
      </defs>
      <use xlink:href="#MalgunGothic-baa8"/>
      <use xlink:href="#MalgunGothic-b4e0" transform="translate(100 0)"/>
     </g>
    </g>
   </g>
   <g id="text_23">
    <!-- Virtual 아이돌 Unigram 네트워크 (Community) -->
    <g transform="translate(364.154688 22.840625) scale(0.2 -0.2)">
     <defs>
      <path id="NanumGothic-56" d="M 3706 4371 
Q 3718 4410 3750 4435 
Q 3782 4461 3821 4461 
L 4109 4461 
Q 4147 4461 4166 4432 
Q 4186 4403 4173 4371 
L 2426 -192 
Q 2406 -243 2384 -259 
Q 2362 -275 2310 -275 
L 1958 -275 
Q 1907 -275 1884 -259 
Q 1862 -243 1843 -192 
L 134 4371 
Q 122 4403 141 4432 
Q 160 4461 198 4461 
L 518 4461 
Q 595 4461 634 4371 
L 2138 192 
Q 2522 1222 2912 2262 
Q 3302 3302 3706 4371 
z
" transform="scale(0.015625)"/>
      <path id="NanumGothic-69" d="M 1050 -186 
Q 1050 -275 960 -275 
L 678 -275 
Q 589 -275 589 -186 
L 589 3098 
Q 589 3187 678 3187 
L 960 3187 
Q 1050 3187 1050 3098 
L 1050 -186 
z
M 506 4397 
Q 506 4525 595 4617 
Q 685 4710 813 4710 
Q 941 4710 1033 4617 
Q 1126 4525 1126 4397 
Q 1126 4269 1033 4179 
Q 941 4090 813 4090 
Q 685 4090 595 4179 
Q 506 4269 506 4397 
z
" transform="scale(0.015625)"/>
      <path id="NanumGothic-72" d="M 2221 2797 
Q 2106 2835 1914 2835 
Q 1440 2835 1210 2368 
Q 1030 2003 1030 1434 
L 1030 -186 
Q 1030 -275 941 -275 
L 691 -275 
Q 602 -275 602 -186 
L 602 2413 
Q 602 2643 598 2787 
Q 595 2931 589 3098 
Q 589 3187 678 3187 
L 915 3187 
Q 1005 3187 1005 3098 
L 1005 2470 
Q 1318 3277 1926 3277 
Q 2074 3277 2221 3238 
Q 2259 3226 2288 3197 
Q 2317 3168 2317 3117 
L 2317 2848 
Q 2317 2810 2285 2797 
Q 2253 2784 2221 2797 
z
" transform="scale(0.015625)"/>
      <path id="NanumGothic-74" d="M 2208 -282 
Q 1939 -378 1677 -378 
Q 1158 -378 992 -38 
Q 883 192 883 774 
L 883 2816 
L 282 2816 
Q 192 2816 192 2906 
L 192 3098 
Q 192 3187 282 3187 
L 883 3187 
L 883 4051 
Q 883 4147 966 4147 
L 1235 4147 
Q 1318 4147 1318 4051 
L 1318 3187 
L 2029 3187 
Q 2118 3187 2118 3098 
L 2118 2906 
Q 2118 2816 2029 2816 
L 1318 2816 
L 1318 557 
Q 1318 -13 1779 -13 
Q 1958 -13 2182 64 
Q 2214 77 2243 64 
Q 2272 51 2272 13 
L 2285 -154 
Q 2298 -243 2208 -282 
z
" transform="scale(0.015625)"/>
      <path id="NanumGothic-75" d="M 3347 -186 
Q 3347 -275 3258 -275 
L 3027 -275 
Q 2938 -275 2938 -186 
L 2938 346 
Q 2771 -38 2492 -208 
Q 2214 -378 1792 -378 
Q 595 -378 595 960 
L 595 3098 
Q 595 3187 685 3187 
L 941 3187 
Q 1030 3187 1030 3098 
L 1030 1075 
Q 1030 -13 1862 -13 
Q 2106 -13 2301 92 
Q 2496 198 2630 380 
Q 2765 563 2835 806 
Q 2906 1050 2899 1318 
L 2899 3098 
Q 2899 3187 2989 3187 
L 3245 3187 
Q 3334 3187 3334 3098 
L 3334 525 
Q 3334 314 3337 147 
Q 3341 -19 3347 -186 
z
" transform="scale(0.015625)"/>
      <path id="NanumGothic-61" d="M 2566 1530 
L 2445 1530 
Q 2086 1542 1808 1500 
Q 1530 1459 1344 1389 
Q 1075 1293 940 1104 
Q 806 915 806 653 
Q 806 493 857 355 
Q 909 218 1018 141 
Q 1210 -13 1530 -13 
Q 1754 -13 1942 76 
Q 2131 166 2272 332 
Q 2413 499 2489 745 
Q 2566 992 2566 1312 
L 2566 1530 
z
M 742 2650 
Q 710 2630 681 2640 
Q 653 2650 653 2682 
L 653 2925 
Q 653 3014 742 3059 
Q 966 3181 1219 3229 
Q 1472 3277 1773 3277 
Q 2413 3277 2707 2973 
Q 3002 2669 3002 2054 
L 3002 448 
Q 3002 256 3008 105 
Q 3014 -45 3027 -186 
Q 3027 -275 2938 -275 
L 2707 -275 
Q 2618 -275 2618 -186 
L 2618 307 
Q 2483 -19 2166 -198 
Q 1850 -378 1478 -378 
Q 832 -378 531 0 
Q 429 128 377 297 
Q 326 467 326 634 
Q 326 1024 508 1305 
Q 691 1587 1069 1728 
Q 1530 1894 2483 1894 
L 2566 1894 
L 2566 2086 
Q 2566 2490 2384 2701 
Q 2202 2912 1773 2912 
Q 1485 2912 1229 2851 
Q 973 2790 742 2650 
z
" transform="scale(0.015625)"/>
      <path id="NanumGothic-6c" d="M 1056 -186 
Q 1056 -275 966 -275 
L 685 -275 
Q 595 -275 595 -186 
L 595 4723 
Q 595 4813 685 4813 
L 966 4813 
Q 1056 4813 1056 4723 
L 1056 -186 
z
" transform="scale(0.015625)"/>
      <path id="NanumGothic-20" transform="scale(0.015625)"/>
      <path id="NanumGothic-c544" d="M 3533 2566 
Q 3533 2208 3446 1843 
Q 3360 1478 3174 1184 
Q 2989 890 2697 701 
Q 2406 512 1997 512 
Q 1574 512 1283 697 
Q 992 883 816 1180 
Q 640 1478 563 1843 
Q 486 2208 486 2566 
Q 486 2944 563 3312 
Q 640 3680 816 3974 
Q 992 4269 1283 4448 
Q 1574 4627 1997 4627 
Q 2406 4627 2697 4448 
Q 2989 4269 3174 3977 
Q 3360 3686 3446 3318 
Q 3533 2950 3533 2566 
z
M 3078 2573 
Q 3078 2861 3017 3155 
Q 2957 3450 2829 3686 
Q 2701 3923 2496 4070 
Q 2291 4218 1997 4218 
Q 1690 4218 1488 4070 
Q 1286 3923 1164 3686 
Q 1043 3450 992 3155 
Q 941 2861 941 2573 
Q 941 2298 989 2003 
Q 1037 1709 1158 1469 
Q 1280 1229 1485 1075 
Q 1690 922 1997 922 
Q 2291 922 2496 1075 
Q 2701 1229 2829 1469 
Q 2957 1709 3017 2003 
Q 3078 2298 3078 2573 
z
M 4928 -806 
Q 4928 -896 4838 -896 
L 4576 -896 
Q 4486 -896 4486 -806 
L 4486 4915 
Q 4486 5005 4576 5005 
L 4838 5005 
Q 4928 5005 4928 4915 
L 4928 2586 
L 5811 2586 
Q 5850 2586 5878 2563 
Q 5907 2541 5907 2502 
L 5907 2285 
Q 5907 2253 5878 2227 
Q 5850 2202 5811 2202 
L 4928 2202 
L 4928 -806 
z
" transform="scale(0.015625)"/>
      <path id="NanumGothic-c774" d="M 3654 2566 
Q 3654 2208 3568 1843 
Q 3482 1478 3296 1184 
Q 3110 890 2819 701 
Q 2528 512 2118 512 
Q 1696 512 1405 697 
Q 1114 883 938 1180 
Q 762 1478 685 1843 
Q 608 2208 608 2566 
Q 608 2944 685 3312 
Q 762 3680 938 3974 
Q 1114 4269 1405 4448 
Q 1696 4627 2118 4627 
Q 2528 4627 2819 4448 
Q 3110 4269 3296 3977 
Q 3482 3686 3568 3318 
Q 3654 2950 3654 2566 
z
M 3200 2573 
Q 3200 2867 3139 3168 
Q 3078 3469 2950 3709 
Q 2822 3949 2617 4099 
Q 2413 4250 2118 4250 
Q 1811 4250 1609 4099 
Q 1408 3949 1286 3709 
Q 1165 3469 1113 3168 
Q 1062 2867 1062 2573 
Q 1062 2291 1110 1993 
Q 1158 1696 1280 1449 
Q 1402 1203 1606 1046 
Q 1811 890 2118 890 
Q 2413 890 2617 1046 
Q 2822 1203 2950 1449 
Q 3078 1696 3139 1993 
Q 3200 2291 3200 2573 
z
M 5152 -806 
Q 5152 -896 5062 -896 
L 4800 -896 
Q 4710 -896 4710 -806 
L 4710 4915 
Q 4710 5005 4800 5005 
L 5062 5005 
Q 5152 5005 5152 4915 
L 5152 -806 
z
" transform="scale(0.015625)"/>
      <path id="NanumGothic-b3cc" d="M 4986 3219 
Q 4986 3130 4902 3130 
L 3226 3130 
L 3226 2528 
L 5728 2528 
Q 5760 2528 5792 2505 
Q 5824 2483 5824 2445 
L 5824 2227 
Q 5824 2195 5792 2169 
Q 5760 2144 5728 2144 
L 288 2144 
Q 250 2144 221 2169 
Q 192 2195 192 2227 
L 192 2445 
Q 192 2483 221 2505 
Q 250 2528 288 2528 
L 2784 2528 
L 2784 3130 
L 1587 3130 
Q 1306 3130 1203 3222 
Q 1101 3315 1101 3584 
L 1101 4544 
Q 1101 4813 1203 4905 
Q 1306 4998 1587 4998 
L 4858 4998 
Q 4941 4998 4941 4915 
L 4941 4704 
Q 4941 4614 4858 4614 
L 1696 4614 
Q 1606 4614 1574 4579 
Q 1542 4544 1542 4448 
L 1542 3680 
Q 1542 3590 1574 3552 
Q 1606 3514 1696 3514 
L 4902 3514 
Q 4986 3514 4986 3430 
L 4986 3219 
z
M 5056 -781 
Q 5056 -813 5027 -835 
Q 4998 -858 4973 -858 
L 1568 -858 
Q 1267 -858 1174 -746 
Q 1082 -634 1082 -365 
L 1082 141 
Q 1082 410 1194 502 
Q 1306 595 1594 595 
L 4346 595 
Q 4435 595 4460 620 
Q 4486 646 4486 742 
L 4486 1082 
Q 4486 1178 4464 1203 
Q 4442 1229 4352 1229 
L 1158 1229 
Q 1126 1229 1097 1248 
Q 1069 1267 1069 1299 
L 1069 1523 
Q 1069 1555 1097 1574 
Q 1126 1594 1158 1594 
L 4416 1594 
Q 4570 1594 4666 1571 
Q 4762 1549 4819 1497 
Q 4877 1446 4899 1353 
Q 4922 1261 4922 1126 
L 4922 685 
Q 4922 416 4810 323 
Q 4698 230 4410 230 
L 1651 230 
Q 1562 230 1539 204 
Q 1517 179 1517 83 
L 1517 -339 
Q 1517 -429 1542 -457 
Q 1568 -486 1658 -486 
L 4966 -486 
Q 4998 -486 5027 -505 
Q 5056 -525 5056 -557 
L 5056 -781 
z
" transform="scale(0.015625)"/>
      <path id="NanumGothic-55" d="M 1088 1376 
Q 1088 768 1402 416 
Q 1754 26 2342 26 
Q 2944 26 3296 416 
Q 3456 589 3529 829 
Q 3603 1069 3603 1376 
L 3603 4384 
Q 3603 4474 3693 4474 
L 3987 4474 
Q 4077 4474 4077 4384 
L 4077 1376 
Q 4077 909 3923 553 
Q 3770 198 3482 -26 
Q 3014 -378 2342 -378 
Q 1677 -378 1210 -26 
Q 614 416 614 1376 
L 614 4384 
Q 614 4474 704 4474 
L 998 4474 
Q 1088 4474 1088 4384 
L 1088 1376 
z
" transform="scale(0.015625)"/>
      <path id="NanumGothic-6e" d="M 3334 -186 
Q 3334 -275 3245 -275 
L 2989 -275 
Q 2899 -275 2899 -186 
L 2899 1830 
Q 2899 2419 2688 2665 
Q 2477 2912 2093 2912 
Q 1574 2912 1302 2624 
Q 1030 2336 1030 1818 
L 1030 -186 
Q 1030 -275 941 -275 
L 685 -275 
Q 595 -275 595 -186 
L 595 2374 
Q 595 2650 592 2803 
Q 589 2957 576 3098 
Q 570 3142 598 3164 
Q 627 3187 666 3187 
L 896 3187 
Q 986 3187 986 3098 
L 986 2746 
Q 1165 3021 1417 3149 
Q 1670 3277 2112 3277 
Q 2720 3277 3027 2925 
Q 3334 2573 3334 1933 
L 3334 -186 
z
" transform="scale(0.015625)"/>
      <path id="NanumGothic-67" d="M 2950 1472 
Q 2950 2157 2668 2528 
Q 2387 2899 1907 2899 
Q 1389 2899 1126 2553 
Q 864 2208 864 1459 
Q 864 1184 941 953 
Q 1018 723 1152 560 
Q 1286 397 1472 304 
Q 1658 211 1875 211 
Q 2099 211 2297 304 
Q 2496 397 2640 566 
Q 2784 736 2867 966 
Q 2950 1197 2950 1472 
z
M 749 -1114 
Q 672 -1094 685 -1018 
L 704 -736 
Q 704 -653 787 -698 
Q 1030 -806 1254 -854 
Q 1478 -902 1741 -902 
Q 2323 -902 2614 -547 
Q 2906 -192 2944 422 
Q 2797 134 2509 -13 
Q 2221 -160 1869 -160 
Q 1555 -160 1286 -45 
Q 1018 70 819 281 
Q 621 493 505 793 
Q 390 1094 390 1459 
Q 390 1888 470 2224 
Q 550 2560 723 2790 
Q 896 3021 1171 3142 
Q 1446 3264 1837 3264 
Q 2176 3264 2435 3152 
Q 2694 3040 2963 2752 
L 2950 3098 
Q 2950 3187 3040 3187 
L 3283 3187 
Q 3373 3187 3373 3098 
L 3373 538 
Q 3373 122 3267 -214 
Q 3162 -550 2954 -784 
Q 2746 -1018 2438 -1142 
Q 2131 -1267 1734 -1267 
Q 1446 -1267 1228 -1232 
Q 1011 -1197 749 -1114 
z
" transform="scale(0.015625)"/>
      <path id="NanumGothic-6d" d="M 602 2374 
Q 602 2643 595 2800 
Q 589 2957 576 3098 
Q 576 3187 666 3187 
L 902 3187 
Q 992 3187 992 3098 
L 992 2752 
Q 1139 2989 1388 3126 
Q 1638 3264 2003 3264 
Q 2387 3264 2675 3075 
Q 2963 2886 3027 2522 
Q 3162 2886 3459 3075 
Q 3757 3264 4147 3264 
Q 4397 3264 4598 3174 
Q 4800 3085 4944 2928 
Q 5088 2771 5165 2560 
Q 5242 2349 5242 2112 
L 5242 -186 
Q 5242 -275 5152 -275 
L 4909 -275 
Q 4819 -275 4819 -192 
L 4819 2022 
Q 4819 2899 4083 2899 
Q 3859 2899 3683 2800 
Q 3507 2701 3382 2528 
Q 3258 2355 3197 2124 
Q 3136 1894 3142 1638 
L 3142 -186 
Q 3142 -275 3053 -275 
L 2797 -275 
Q 2707 -275 2707 -186 
L 2707 2022 
Q 2707 2899 1965 2899 
Q 1530 2899 1280 2617 
Q 1030 2336 1030 1875 
L 1030 -186 
Q 1030 -275 941 -275 
L 691 -275 
Q 602 -275 602 -186 
L 602 2374 
z
" transform="scale(0.015625)"/>
      <path id="NanumGothic-b124" d="M 3808 3053 
L 3808 4806 
Q 3808 4896 3898 4896 
L 4141 4896 
Q 4230 4896 4230 4806 
L 4230 -563 
Q 4230 -653 4141 -653 
L 3898 -653 
Q 3808 -653 3808 -563 
L 3808 2669 
L 2317 2669 
Q 2234 2669 2234 2746 
L 2234 2976 
Q 2234 3053 2317 3053 
L 3808 3053 
z
M 5363 -806 
Q 5363 -896 5274 -896 
L 5030 -896 
Q 4941 -896 4941 -806 
L 4941 4915 
Q 4941 5005 5030 5005 
L 5274 5005 
Q 5363 5005 5363 4915 
L 5363 -806 
z
M 1094 1446 
Q 1094 1350 1126 1318 
Q 1158 1286 1248 1280 
Q 1792 1261 2246 1312 
Q 2701 1363 3149 1466 
Q 3258 1491 3277 1389 
L 3309 1210 
Q 3328 1120 3226 1094 
Q 2822 986 2275 925 
Q 1728 864 1158 883 
Q 870 896 761 1021 
Q 653 1146 653 1414 
L 653 4454 
Q 653 4544 742 4544 
L 1005 4544 
Q 1094 4544 1094 4454 
L 1094 1446 
z
" transform="scale(0.015625)"/>
      <path id="NanumGothic-d2b8" d="M 5030 1766 
Q 5030 1677 4947 1677 
L 1491 1677 
Q 1210 1677 1107 1769 
Q 1005 1862 1005 2131 
L 1005 4211 
Q 1005 4480 1107 4573 
Q 1210 4666 1491 4666 
L 4902 4666 
Q 4986 4666 4986 4582 
L 4986 4371 
Q 4986 4282 4902 4282 
L 1600 4282 
Q 1510 4282 1478 4246 
Q 1446 4211 1446 4115 
L 1446 3360 
L 4813 3360 
Q 4902 3360 4902 3290 
L 4902 3072 
Q 4902 2989 4819 2989 
L 1446 2989 
L 1446 2227 
Q 1446 2138 1478 2099 
Q 1510 2061 1600 2061 
L 4947 2061 
Q 5030 2061 5030 1978 
L 5030 1766 
z
M 5728 499 
Q 5760 499 5792 476 
Q 5824 454 5824 416 
L 5824 198 
Q 5824 166 5792 140 
Q 5760 115 5728 115 
L 288 115 
Q 250 115 221 140 
Q 192 166 192 198 
L 192 416 
Q 192 454 221 476 
Q 250 499 288 499 
L 5728 499 
z
" transform="scale(0.015625)"/>
      <path id="NanumGothic-c6cc" d="M 3686 3494 
Q 3686 3245 3571 3024 
Q 3456 2803 3251 2636 
Q 3046 2470 2764 2371 
Q 2483 2272 2150 2272 
Q 1824 2272 1549 2368 
Q 1274 2464 1072 2633 
Q 870 2803 755 3024 
Q 640 3245 640 3494 
Q 640 3770 755 3997 
Q 870 4224 1072 4387 
Q 1274 4550 1549 4636 
Q 1824 4723 2150 4723 
Q 2458 4723 2736 4633 
Q 3014 4544 3225 4384 
Q 3437 4224 3561 3997 
Q 3686 3770 3686 3494 
z
M 4710 832 
L 4710 4915 
Q 4710 5005 4800 5005 
L 5062 5005 
Q 5152 5005 5152 4915 
L 5152 -806 
Q 5152 -896 5062 -896 
L 4800 -896 
Q 4710 -896 4710 -806 
L 4710 461 
L 3398 461 
Q 3315 461 3315 538 
L 3315 755 
Q 3315 832 3398 832 
L 4710 832 
z
M 3238 3501 
Q 3238 3699 3152 3852 
Q 3066 4006 2915 4112 
Q 2765 4218 2566 4272 
Q 2368 4326 2150 4326 
Q 1920 4326 1728 4268 
Q 1536 4211 1392 4105 
Q 1248 4000 1168 3846 
Q 1088 3693 1088 3501 
Q 1088 3315 1165 3161 
Q 1242 3008 1382 2896 
Q 1523 2784 1718 2723 
Q 1914 2662 2150 2662 
Q 2368 2662 2566 2726 
Q 2765 2790 2915 2902 
Q 3066 3014 3152 3168 
Q 3238 3322 3238 3501 
z
M 4218 1914 
Q 4250 1920 4278 1904 
Q 4307 1888 4314 1862 
L 4346 1645 
Q 4352 1568 4269 1549 
Q 3859 1478 3382 1417 
Q 2906 1357 2426 1325 
L 2426 -685 
Q 2426 -723 2403 -752 
Q 2381 -781 2342 -781 
L 2067 -781 
Q 2035 -781 2009 -752 
Q 1984 -723 1984 -685 
L 1984 1299 
Q 1779 1286 1552 1280 
Q 1325 1274 1107 1267 
Q 890 1261 698 1257 
Q 506 1254 371 1261 
Q 333 1261 304 1286 
Q 275 1312 275 1344 
L 275 1562 
Q 275 1600 304 1622 
Q 333 1645 371 1645 
Q 557 1645 816 1648 
Q 1075 1651 1347 1657 
Q 1619 1664 1872 1673 
Q 2125 1683 2298 1696 
Q 2522 1709 2784 1734 
Q 3046 1760 3308 1789 
Q 3571 1818 3808 1850 
Q 4045 1882 4218 1914 
z
" transform="scale(0.015625)"/>
      <path id="NanumGothic-d06c" d="M 1024 4506 
Q 1024 4544 1056 4563 
Q 1088 4582 1120 4582 
L 4506 4582 
Q 4659 4582 4752 4550 
Q 4845 4518 4896 4457 
Q 4947 4397 4966 4301 
Q 4986 4205 4992 4070 
Q 4998 3898 4988 3626 
Q 4979 3354 4960 3034 
Q 4941 2714 4912 2362 
Q 4883 2010 4848 1670 
Q 4813 1331 4774 1027 
Q 4736 723 4698 499 
L 5728 499 
Q 5760 499 5792 476 
Q 5824 454 5824 416 
L 5824 198 
Q 5824 166 5792 140 
Q 5760 115 5728 115 
L 288 115 
Q 250 115 221 140 
Q 192 166 192 198 
L 192 416 
Q 192 454 221 476 
Q 250 499 288 499 
L 4262 499 
Q 4294 634 4326 835 
Q 4358 1037 4387 1283 
Q 4416 1530 4445 1805 
Q 4474 2080 4493 2362 
Q 4397 2349 4246 2342 
Q 4096 2336 3939 2333 
Q 3782 2330 3654 2326 
Q 3526 2323 3482 2323 
Q 3328 2317 3011 2313 
Q 2694 2310 2339 2307 
Q 1984 2304 1661 2301 
Q 1338 2298 1165 2298 
Q 1082 2298 1082 2374 
L 1082 2592 
Q 1082 2669 1165 2669 
Q 1293 2669 1488 2669 
Q 1683 2669 1910 2672 
Q 2138 2675 2378 2678 
Q 2618 2682 2826 2685 
Q 3034 2688 3200 2688 
Q 3366 2688 3443 2694 
Q 3482 2694 3622 2700 
Q 3763 2707 3932 2710 
Q 4102 2714 4268 2720 
Q 4435 2726 4525 2739 
Q 4550 3149 4560 3501 
Q 4570 3853 4557 4064 
Q 4550 4154 4524 4176 
Q 4499 4198 4410 4198 
L 1120 4198 
Q 1088 4198 1056 4220 
Q 1024 4243 1024 4275 
L 1024 4506 
z
" transform="scale(0.015625)"/>
      <path id="NanumGothic-28" d="M 1984 -1133 
Q 1939 -1133 1929 -1129 
Q 1920 -1126 1894 -1094 
Q 1312 -365 1030 384 
Q 749 1133 749 1933 
Q 749 2726 1030 3475 
Q 1312 4224 1894 4960 
Q 1920 4992 1929 4995 
Q 1939 4998 1971 4998 
L 2150 4998 
Q 2189 4998 2189 4992 
Q 2189 4986 2170 4954 
Q 1165 3379 1165 1933 
Q 1165 1197 1421 448 
Q 1677 -301 2176 -1088 
Q 2208 -1133 2144 -1133 
L 1984 -1133 
z
" transform="scale(0.015625)"/>
      <path id="NanumGothic-43" d="M 3834 186 
Q 3872 198 3904 188 
Q 3936 179 3936 141 
L 3949 -109 
Q 3955 -192 3859 -224 
Q 3648 -294 3424 -326 
Q 3200 -358 2861 -358 
Q 1747 -358 1088 320 
Q 762 653 605 1094 
Q 448 1536 448 2093 
Q 448 3187 1107 3866 
Q 1779 4544 2861 4544 
Q 3014 4544 3139 4537 
Q 3264 4531 3382 4518 
Q 3501 4506 3616 4486 
Q 3731 4467 3859 4435 
Q 3955 4416 3949 4314 
L 3936 4058 
Q 3923 3968 3840 4000 
Q 3590 4083 3366 4112 
Q 3142 4141 2861 4141 
Q 1958 4141 1421 3565 
Q 922 3008 922 2093 
Q 922 1632 1043 1261 
Q 1165 890 1414 614 
Q 1933 38 2861 45 
Q 3130 51 3395 83 
Q 3661 115 3834 186 
z
" transform="scale(0.015625)"/>
      <path id="NanumGothic-6f" d="M 3130 1453 
Q 3130 1754 3050 2016 
Q 2970 2278 2829 2483 
Q 2496 2893 1965 2893 
Q 1696 2893 1481 2787 
Q 1267 2682 1101 2483 
Q 954 2278 874 2016 
Q 794 1754 794 1453 
Q 794 1146 874 883 
Q 954 621 1101 422 
Q 1440 6 1965 6 
Q 2234 6 2448 115 
Q 2662 224 2829 422 
Q 2970 621 3050 883 
Q 3130 1146 3130 1453 
z
M 3603 1453 
Q 3603 1075 3494 752 
Q 3386 429 3206 186 
Q 2982 -83 2672 -230 
Q 2362 -378 1965 -378 
Q 1568 -378 1254 -230 
Q 941 -83 717 186 
Q 538 429 432 752 
Q 326 1075 326 1453 
Q 326 2227 717 2720 
Q 1165 3277 1965 3277 
Q 2368 3277 2675 3139 
Q 2982 3002 3206 2720 
Q 3603 2214 3603 1453 
z
" transform="scale(0.015625)"/>
      <path id="NanumGothic-79" d="M 301 -1222 
Q 224 -1203 237 -1126 
L 256 -909 
Q 256 -832 333 -864 
Q 435 -902 570 -902 
Q 704 -902 816 -860 
Q 928 -819 986 -749 
Q 1056 -659 1142 -454 
Q 1229 -250 1312 13 
Q 1024 794 742 1555 
Q 461 2317 173 3098 
Q 160 3130 173 3158 
Q 186 3187 224 3187 
L 525 3187 
Q 614 3187 653 3098 
L 1517 614 
Q 1754 1267 1968 1859 
Q 2182 2451 2419 3098 
Q 2451 3187 2547 3187 
L 2822 3187 
Q 2861 3187 2873 3158 
Q 2886 3130 2874 3098 
L 1542 -474 
Q 1472 -659 1385 -806 
Q 1299 -954 1210 -1043 
Q 1094 -1152 953 -1206 
Q 813 -1261 659 -1261 
Q 563 -1261 486 -1254 
Q 410 -1248 301 -1222 
z
" transform="scale(0.015625)"/>
      <path id="NanumGothic-29" d="M 301 -1133 
Q 243 -1133 275 -1088 
Q 774 -301 1027 448 
Q 1280 1197 1280 1933 
Q 1280 2662 1030 3414 
Q 781 4166 282 4954 
Q 262 4986 262 4992 
Q 262 4998 294 4998 
L 474 4998 
Q 506 4998 515 4995 
Q 525 4992 557 4960 
Q 1139 4224 1417 3475 
Q 1696 2726 1696 1933 
Q 1696 1133 1417 384 
Q 1139 -365 557 -1094 
Q 525 -1126 515 -1129 
Q 506 -1133 461 -1133 
L 301 -1133 
z
" transform="scale(0.015625)"/>
     </defs>
     <use xlink:href="#NanumGothic-56"/>
     <use xlink:href="#NanumGothic-69" transform="translate(66.599991 0)"/>
     <use xlink:href="#NanumGothic-72" transform="translate(90.799988 0)"/>
     <use xlink:href="#NanumGothic-74" transform="translate(127.099976 0)"/>
     <use xlink:href="#NanumGothic-75" transform="translate(163.399963 0)"/>
     <use xlink:href="#NanumGothic-61" transform="translate(223.999954 0)"/>
     <use xlink:href="#NanumGothic-6c" transform="translate(278.499939 0)"/>
     <use xlink:href="#NanumGothic-20" transform="translate(302.699936 0)"/>
     <use xlink:href="#NanumGothic-c544" transform="translate(330.699921 0)"/>
     <use xlink:href="#NanumGothic-c774" transform="translate(424.699905 0)"/>
     <use xlink:href="#NanumGothic-b3cc" transform="translate(518.69989 0)"/>
     <use xlink:href="#NanumGothic-20" transform="translate(612.699875 0)"/>
     <use xlink:href="#NanumGothic-55" transform="translate(640.69986 0)"/>
     <use xlink:href="#NanumGothic-6e" transform="translate(713.399841 0)"/>
     <use xlink:href="#NanumGothic-69" transform="translate(773.999832 0)"/>
     <use xlink:href="#NanumGothic-67" transform="translate(798.199829 0)"/>
     <use xlink:href="#NanumGothic-72" transform="translate(858.79982 0)"/>
     <use xlink:href="#NanumGothic-61" transform="translate(895.099808 0)"/>
     <use xlink:href="#NanumGothic-6d" transform="translate(949.599792 0)"/>
     <use xlink:href="#NanumGothic-20" transform="translate(1040.39978 0)"/>
     <use xlink:href="#NanumGothic-b124" transform="translate(1068.399765 0)"/>
     <use xlink:href="#NanumGothic-d2b8" transform="translate(1162.39975 0)"/>
     <use xlink:href="#NanumGothic-c6cc" transform="translate(1256.399734 0)"/>
     <use xlink:href="#NanumGothic-d06c" transform="translate(1350.399719 0)"/>
     <use xlink:href="#NanumGothic-20" transform="translate(1444.399704 0)"/>
     <use xlink:href="#NanumGothic-28" transform="translate(1472.399689 0)"/>
     <use xlink:href="#NanumGothic-43" transform="translate(1508.699677 0)"/>
     <use xlink:href="#NanumGothic-6f" transform="translate(1575.899673 0)"/>
     <use xlink:href="#NanumGothic-6d" transform="translate(1636.499664 0)"/>
     <use xlink:href="#NanumGothic-6d" transform="translate(1727.299652 0)"/>
     <use xlink:href="#NanumGothic-75" transform="translate(1818.09964 0)"/>
     <use xlink:href="#NanumGothic-6e" transform="translate(1878.699631 0)"/>
     <use xlink:href="#NanumGothic-69" transform="translate(1939.299622 0)"/>
     <use xlink:href="#NanumGothic-74" transform="translate(1963.499619 0)"/>
     <use xlink:href="#NanumGothic-79" transform="translate(1999.799606 0)"/>
     <use xlink:href="#NanumGothic-29" transform="translate(2046.1996 0)"/>
    </g>
   </g>
  </g>
 </g>
 <defs>
  <clipPath id="p8dd5b5c33e">
   <rect x="7.2" y="34.840625" width="1130.4" height="598.56"/>
  </clipPath>
 </defs>
</svg>
